<?xml version="1.0" encoding="UTF-8" standalone="no"?>
<!-- Created with Inkscape (http://www.inkscape.org/) -->

<svg
   xmlns:dc="http://purl.org/dc/elements/1.1/"
   xmlns:cc="http://creativecommons.org/ns#"
   xmlns:rdf="http://www.w3.org/1999/02/22-rdf-syntax-ns#"
   xmlns:svg="http://www.w3.org/2000/svg"
   xmlns="http://www.w3.org/2000/svg"
   xmlns:sodipodi="http://sodipodi.sourceforge.net/DTD/sodipodi-0.dtd"
   xmlns:inkscape="http://www.inkscape.org/namespaces/inkscape"
   width="56"
   height="56"
   id="svg3917"
   version="1.1"
   inkscape:version="0.48.5 r10040"
   sodipodi:docname="dns.svg">
  <defs
     id="defs3919" />
  <sodipodi:namedview
     id="base"
     pagecolor="#ffffff"
     bordercolor="#666666"
     borderopacity="1.0"
     inkscape:pageopacity="0.0"
     inkscape:pageshadow="2"
     inkscape:zoom="1.4241379"
     inkscape:cx="57.142857"
     inkscape:cy="-11.428571"
     inkscape:document-units="mm"
     inkscape:current-layer="layer1"
     showgrid="false"
     units="mm"
     fit-margin-top="0"
     fit-margin-left="0"
     fit-margin-right="0"
     fit-margin-bottom="0"
     inkscape:window-width="463"
     inkscape:window-height="423"
     inkscape:window-x="208"
     inkscape:window-y="208"
     inkscape:window-maximized="0" />
  <metadata
     id="metadata3922">
    <rdf:RDF>
      <cc:Work
         rdf:about="">
        <dc:format>image/svg+xml</dc:format>
        <dc:type
           rdf:resource="http://purl.org/dc/dcmitype/StillImage" />
        <dc:title></dc:title>
      </cc:Work>
    </rdf:RDF>
  </metadata>
  <g
     inkscape:label="Layer 1"
     inkscape:groupmode="layer"
     id="layer1"
     transform="translate(-286.28571,-410.07646)">
    <path
       transform="matrix(0.77777777,0,0,0.77777777,3.9523841,325.01699)"
       d="m 435,145.36218 c 0,19.88225 -16.11775,36 -36,36 -19.88225,0 -36,-16.11775 -36,-36 0,-19.88225 16.11775,-36 36,-36 19.88225,0 36,16.11775 36,36 z"
       sodipodi:ry="36"
       sodipodi:rx="36"
       sodipodi:cy="145.36218"
       sodipodi:cx="399"
       id="path3903"
       style="fill:#ffffff;stroke:none"
       sodipodi:type="arc" />
    <g
       transform="matrix(0.52173907,0,0,0.52173907,267.85094,264.14505)"
       id="g3907">
      <path
         style="fill:#ffffff;stroke:none"
         d="m 126.5,333.36859 c 0,20.71068 -16.78932,37.5 -37.5,37.5 -20.710678,0 -37.5,-16.78932 -37.5,-37.5 0,-20.71068 16.789322,-37.5 37.5,-37.5 20.71068,0 37.5,16.78932 37.5,37.5 z"
         id="path3909"
         inkscape:connector-curvature="0" />
      <path
         style="fill:#3771c8"
         d="m 43,287.36859 21.60742,0.0225 c 11.62686,0.0132 19.8733,0.0801 20.13623,0.15723 -0.006,0.003 -0.0219,0.008 -0.0562,0.0112 -16.61618,1.58962 -31.05775,12.0538 -37.81299,27.39111 -1.94328,4.41209 -3.21876,9.30527 -3.67798,14.10547 -0.0839,0.87665 -0.16002,-7.67809 -0.17407,-20.08008 L 43,287.36859 z m 0,0 0,46 0,46 0.0281,-21.60742 c 0.0166,-11.88408 0.0619,-21.28399 0.0955,-20.88867 0.48659,5.72977 2.01084,11.35176 4.4248,16.32348 2.40902,4.96156 4.72208,8.27628 8.47339,12.12891 4.07446,4.18452 7.57652,6.73294 12.76343,9.2876 5.30441,2.61253 10.76982,4.12803 16.71093,4.63256 0.39532,0.0336 -9.00459,0.0732 -20.88867,0.0899 L 43,379.36859 l 46,0 46,0 -21.60742,-0.0337 c -11.88408,-0.0166 -21.28399,-0.0567 -20.88867,-0.0899 5.8986,-0.49418 11.64636,-2.09696 16.96923,-4.73925 4.88103,-2.42296 8.52961,-5.10706 12.49952,-9.18091 3.64524,-3.7407 6.06913,-7.18341 8.35546,-11.86499 2.48746,-5.09341 4.07397,-10.85825 4.55396,-16.5874 0.0324,0.32767 0.0739,9.45748 0.0898,20.88867 l 0.0281,21.60748 0,-46 0,-24.4375 c 0,11.85937 -0.0404,21.5625 -0.0898,21.5625 -0.0494,0 -0.0899,-0.37431 -0.0899,-0.83105 0,-0.45676 -0.12651,-1.68986 -0.28076,-2.74024 -0.70101,-4.77347 -2.03622,-9.13217 -4.10474,-13.40918 -2.37877,-4.91851 -4.70471,-8.25328 -8.45654,-12.10644 -4.06903,-4.17894 -7.56394,-6.72436 -12.76343,-9.29322 -5.25673,-2.59713 -10.76479,-4.12198 -16.71093,-4.62695 0.32767,-0.0328 9.45748,-0.0739 20.88867,-0.0898 L 135,287.36859 l -46,0 -46,0 z m 51.84546,22.83716 c 1.48973,0.003 3.02798,0.18304 4.1272,0.52783 3.78118,1.18604 6.78685,3.74018 8.52392,7.23804 1.0398,2.09378 1.46239,3.77487 1.53296,6.13745 l 0.0505,1.61719 1.12304,0.40429 c 1.49641,0.53569 2.45733,1.11636 3.64429,2.20117 3.79551,3.46889 4.53179,9.27138 1.72388,13.6001 -1.31643,2.02942 -3.17623,3.44879 -5.6377,4.30689 l -1.4375,0.50537 -8.625,0.0449 c -4.74375,0.0258 -8.92822,0.0487 -9.29882,0.0505 l -0.67383,0.006 0,1.79126 c 0,1.76164 0.009,1.79901 0.49414,2.1001 0.76158,0.47224 1.48979,1.17898 1.77441,1.72388 l 0.2583,0.49414 8.93946,0 c 7.80038,0 8.98967,0.0311 9.33813,0.27515 0.46741,0.32738 0.51654,0.83672 0.11792,1.23535 -0.24915,0.24915 -1.33837,0.28637 -9.24829,0.28637 -6.9505,0 -9.00561,0.0505 -9.15283,0.22461 -0.10444,0.12354 -0.37726,0.50351 -0.60083,0.8479 -0.22358,0.3444 -0.72504,0.81096 -1.11743,1.03321 -1.49674,0.84772 -3.60408,0.35163 -4.52027,-1.06128 -0.27739,-0.42778 -0.5853,-0.83706 -0.68506,-0.90967 -0.0997,-0.0726 -4.19827,-0.13333 -9.10791,-0.13477 -7.87311,-0.002 -8.95994,-0.0373 -9.20898,-0.28637 -0.39862,-0.39863 -0.34949,-0.90797 0.11792,-1.23535 0.34845,-0.24407 1.53871,-0.27515 9.33252,-0.27515 l 8.93384,0 0.51098,-0.76367 c 0.28057,-0.41776 0.85129,-0.98848 1.26905,-1.26905 l 0.75805,-0.51097 0,-1.78565 0,-1.78003 -1.75195,-0.006 c -0.96357,-0.001 -5.14805,-0.0249 -9.29883,-0.0505 l -7.54687,-0.0449 -1.55542,-0.5503 c -6.16794,-2.19049 -8.98106,-8.98174 -6.12622,-14.80176 0.9517,-1.9402 2.89873,-3.85881 4.81787,-4.75049 0.78461,-0.36455 1.54756,-0.72997 1.6958,-0.80859 0.17638,-0.0935 0.30902,-0.55567 0.38745,-1.33643 0.42258,-4.20713 3.18419,-7.64527 7.24927,-9.03491 1.86105,-0.6362 4.54576,-0.67841 6.36206,-0.0955 l 1.15674,0.3706 1.17919,-1.20727 c 1.98679,-2.03229 4.19274,-3.29009 7.01905,-4.00366 0.8684,-0.21925 1.99708,-0.32247 3.15576,-0.32007 z"
         id="path3911"
         inkscape:connector-curvature="0" />
    </g>
  </g>
</svg>
