<?xml version="1.0" encoding="utf-8"?>
<!-- Generator: Adobe Illustrator 19.1.0, SVG Export Plug-In . SVG Version: 6.00 Build 0)  -->
<svg version="1.1" id="Lager_1" xmlns="http://www.w3.org/2000/svg" xmlns:xlink="http://www.w3.org/1999/xlink" x="0px" y="0px"
	 viewBox="-263 250.6 315 94.7" style="enable-background:new -263 250.6 315 94.7;" xml:space="preserve">
<g>
	<polygon points="-146.1,285.7 -146.1,282.6 -163.5,282.6 -163.5,286 -153.3,286 -164,294.6 -164,297.7 -146,297.7 -146,294.4 
		-156.8,294.4 	"/>
	<path d="M-127.5,283.9c-1.2-0.9-3.8-1.4-7.8-1.4c-4.5,0-7.2,0.5-8.5,1.4c-1.3,1-1.9,3.2-1.9,6.7c0,3,0.6,4.9,1.9,5.9
		c1.2,0.9,3.8,1.3,7.8,1.3c4.4,0,7.2-0.4,8.4-1.4c1.3-1,1.9-3.1,1.9-6.5C-125.6,286.9-126.2,284.9-127.5,283.9z M-131.3,293.9
		c-0.1,0.1-0.8,0.5-4.1,0.5s-4.2-0.3-4.3-0.5c-0.1-0.1-0.6-0.6-0.6-3.2c0-3.6,0.4-4.3,0.5-4.3c0.1-0.1,0.7-0.5,4.3-0.5
		c3.4,0,4.1,0.4,4.2,0.5c0.1,0.1,0.5,0.6,0.5,3.7C-130.8,293.1-131.2,293.8-131.3,293.9z"/>
	<path d="M-108.4,291.2v1.9l-0.6-0.9c-0.6-0.9-1.2-1.7-1.7-2.3l-5.7-7.3h-7.6v15.1h5.1v-8.6v-1.9l0.4,0.5c0.6,1,1.1,1.6,1.4,2
		l6.2,7.9h7.6v-15.1h-5.1L-108.4,291.2z"/>
	<polygon points="-96,291.5 -86.1,291.5 -86.1,288.5 -96,288.5 -96,286 -85.5,286 -85.5,282.6 -101.1,282.6 -101.1,297.7 
		-85.4,297.7 -85.4,294.4 -96,294.4 	"/>
	<path d="M-69.2,289.4c-0.3,0.5-0.6,1.1-1,2l-0.5,1l-0.5-1c-0.4-0.8-0.8-1.5-1-2l-3.9-6.7h-7.4v15.1h5.1v-8.2c0-0.4,0-1-0.1-1.5
		c0.3,0.7,0.6,1.2,0.9,1.6l4.9,8.1h4.3l4.8-8.2c0.2-0.4,0.5-0.9,0.8-1.6c0,0.6,0,1.1,0,1.6v8.2h5.1v-15.1h-7.6L-69.2,289.4z"/>
	<path d="M-49.9,282.6l-7.6,15.1h5.5l1.3-2.7h8.4l1.3,2.7h5.4l-7.7-15.1H-49.9z M-49.1,292l2.7-5.4l2.7,5.4H-49.1z"/>
	<path d="M-19.5,289.4c-1-0.5-3.1-0.8-6.3-1c-3.4-0.1-4.3-0.3-4.5-0.4c-0.3-0.1-0.3-0.7-0.3-1.1c0-0.6,0.3-0.8,0.5-0.9
		c0.4-0.1,1.2-0.3,3.5-0.3c2,0,2.6,0.2,2.8,0.2c0.3,0.1,0.4,0.6,0.5,1c0,0.1,0,0.2,0,0.4l0.1,0.5h5v-1.1c0-2.1-1.1-3-2-3.4
		c-1.2-0.5-3.4-0.8-6.6-0.8c-3.5,0-5.7,0.3-6.9,0.9c-1.3,0.6-2,1.9-2,3.8c0,1.8,0.6,3,1.7,3.6c1,0.5,3.2,0.9,6.6,1l2.2,0.1
		c1.6,0.1,2,0.2,2.2,0.3c0.2,0.1,0.3,0.5,0.3,0.9c0,0.5-0.1,1.1-0.4,1.2c-0.2,0.1-1,0.3-3.2,0.3c-2.9,0-3.8-0.2-4-0.3
		c-0.4-0.1-0.4-0.8-0.4-1.3v-0.8h-5v1.1c0,1.8,0.7,3.1,1.9,3.7s3.4,0.9,6.9,0.9c3.8,0,6.2-0.3,7.4-0.9c1.3-0.6,1.9-2,1.9-4.1
		C-17.8,291.1-18.4,290-19.5,289.4z"/>
	<polygon points="-17.8,286.1 -11.7,286.1 -11.7,297.7 -6.6,297.7 -6.6,286.1 -0.3,286.1 -0.3,282.6 -17.8,282.6 	"/>
	<polygon points="5.3,291.5 15.2,291.5 15.2,288.5 5.3,288.5 5.3,286 15.8,286 15.8,282.6 0.2,282.6 0.2,297.7 15.9,297.7 
		15.9,294.4 5.3,294.4 	"/>
	<path d="M34.1,291.3c0.5-0.2,0.8-0.4,1.1-0.7c0.6-0.6,0.9-1.7,0.9-3.3c0-1.8-0.6-3-1.7-3.7s-2.9-1-5.6-1h-11v15.1h5.1V293h5.2
		c2.6,0,2.6,1.2,2.6,1.6v3.1h5.1v-3.6C35.8,293.1,35.5,291.9,34.1,291.3z M22.8,286h5.5c1.6,0,2.1,0.2,2.2,0.3
		c0.1,0.1,0.4,0.4,0.4,1.5c0,0.8-0.1,1.3-0.4,1.5c-0.2,0.1-0.8,0.4-2.4,0.4h-5.2L22.8,286L22.8,286z"/>
</g>
<g>
	<path d="M-161.1,313.1h1.3v3.8c0.3-0.4,0.6-0.6,1-0.8s0.8-0.3,1.3-0.3c1,0,1.7,0.3,2.3,1s0.9,1.6,0.9,2.9c0,1.2-0.3,2.2-0.9,3
		c-0.6,0.8-1.4,1.2-2.4,1.2c-0.6,0-1.1-0.1-1.5-0.4c-0.2-0.2-0.5-0.4-0.8-0.8v1h-1.2L-161.1,313.1L-161.1,313.1z M-156.2,321.9
		c0.3-0.6,0.5-1.3,0.5-2.2c0-0.8-0.2-1.5-0.5-2s-0.9-0.8-1.5-0.8s-1.1,0.2-1.5,0.7s-0.7,1.1-0.7,2.1c0,0.7,0.1,1.3,0.3,1.8
		c0.3,0.8,1,1.3,1.9,1.3C-157,322.7-156.5,322.5-156.2,321.9z"/>
	<path d="M-148.4,316h1.4c-0.2,0.5-0.6,1.6-1.2,3.4c-0.5,1.3-0.9,2.4-1.2,3.2c-0.7,2-1.3,3.1-1.6,3.6c-0.3,0.4-0.8,0.6-1.6,0.6
		c-0.2,0-0.3,0-0.4,0c-0.1,0-0.2,0-0.4-0.1v-1.2c0.2,0.1,0.4,0.1,0.5,0.1s0.2,0,0.3,0c0.2,0,0.4,0,0.5-0.1s0.2-0.2,0.3-0.3
		c0,0,0.1-0.2,0.3-0.6c0.1-0.4,0.3-0.6,0.3-0.8l-2.8-7.9h1.5l2.1,6.2L-148.4,316z"/>
</g>
<g>
	<path d="M-106.3,319c0.3,0,0.5-0.2,0.6-0.4c0.1-0.1,0.1-0.3,0.1-0.5c0-0.4-0.2-0.8-0.5-1s-0.8-0.3-1.3-0.3c-0.7,0-1.1,0.2-1.4,0.5
		c-0.2,0.2-0.3,0.5-0.3,0.9h-1.2c0-0.9,0.3-1.6,0.9-2s1.3-0.6,2-0.6c0.9,0,1.6,0.2,2.2,0.5s0.8,0.9,0.8,1.6v4.4c0,0.1,0,0.2,0.1,0.3
		c0.1,0.1,0.2,0.1,0.3,0.1c0.1,0,0.1,0,0.2,0s0.1,0,0.2,0v1c-0.2,0.1-0.4,0.1-0.5,0.1s-0.2,0-0.4,0c-0.4,0-0.8-0.2-1-0.5
		c-0.1-0.2-0.2-0.4-0.2-0.7c-0.3,0.3-0.6,0.6-1.1,0.9s-1,0.4-1.6,0.4c-0.7,0-1.3-0.2-1.7-0.6c-0.4-0.4-0.7-1-0.7-1.6
		c0-0.7,0.2-1.3,0.7-1.6c0.4-0.4,1-0.6,1.7-0.7L-106.3,319z M-109.1,322.5c0.3,0.2,0.6,0.3,1,0.3c0.5,0,0.9-0.1,1.3-0.3
		c0.7-0.3,1.1-0.9,1.1-1.7v-1c-0.2,0.1-0.4,0.2-0.6,0.3c-0.2,0.1-0.5,0.1-0.7,0.1l-0.8,0.1c-0.5,0.1-0.8,0.2-1.1,0.3
		c-0.4,0.2-0.6,0.6-0.6,1.1C-109.5,322-109.3,322.3-109.1,322.5z"/>
	<path d="M-102.3,316h1.2v1.1c0.4-0.4,0.7-0.8,1.2-1s0.9-0.3,1.4-0.3c1.1,0,1.8,0.4,2.2,1.1c0.2,0.4,0.3,1,0.3,1.8v4.9h-1.3v-4.8
		c0-0.5-0.1-0.8-0.2-1.1c-0.2-0.5-0.6-0.7-1.2-0.7c-0.3,0-0.6,0-0.8,0.1c-0.4,0.1-0.7,0.3-0.9,0.6c-0.2,0.3-0.4,0.5-0.4,0.8
		c-0.1,0.3-0.1,0.7-0.1,1.2v4h-1.3L-102.3,316L-102.3,316z"/>
	<path d="M-90,316.2c0.2,0.1,0.5,0.4,0.8,0.8v-3.9h1.2v10.5h-1.2v-1.1c-0.3,0.5-0.7,0.8-1.1,1s-0.9,0.3-1.4,0.3
		c-0.9,0-1.6-0.4-2.2-1.1s-0.9-1.7-0.9-2.9c0-1.1,0.3-2.1,0.9-2.9s1.4-1.2,2.4-1.2C-90.8,315.8-90.3,316-90,316.2z M-92.8,322
		c0.3,0.6,0.9,0.8,1.7,0.8c0.6,0,1.1-0.3,1.5-0.8s0.6-1.2,0.6-2.2s-0.2-1.7-0.6-2.1s-0.9-0.7-1.5-0.7s-1.2,0.2-1.6,0.7
		s-0.6,1.2-0.6,2.2C-93.3,320.7-93.2,321.4-92.8,322z"/>
</g>
<g>
	<path d="M-204.3,267.9v16.3h16.3C-188,275.2-195.3,267.9-204.3,267.9z"/>
	<path d="M-204.3,300.5v-16.3h-16.3C-220.6,293.2-213.3,300.5-204.3,300.5z"/>
	<path d="M-182.5,281.6c-1.3-10.9-10.5-19.4-21.8-19.4c-6.4,0-12.1,2.7-16.1,7c-1.7-1.1-3.7-1.8-5.9-1.8c-5.5,0-10.1,4.2-10.7,9.5
		c-5.9,1.9-10.1,7.4-10.1,13.9c0,8.1,6.6,14.6,14.6,14.6c2.6,0,5-0.7,7.1-1.8c1.9,1.2,4.2,1.8,6.6,1.8c2,0,3.9-0.5,5.6-1.3
		c2.7,1.2,5.7,1.9,8.9,1.9c4.7,0,9-1.5,12.6-4c2.1,2,5,3.3,8.2,3.3c6.6,0,11.9-5.3,11.9-11.9C-171.6,287.3-176.4,282.2-182.5,281.6z
		 M-204.3,301.6c-9.6,0-17.4-7.8-17.4-17.4s7.8-17.4,17.4-17.4c9.6,0,17.4,7.8,17.4,17.4S-194.7,301.6-204.3,301.6z"/>
</g>
<g>
	<path id="path13" d="M-29.1,318.9c-1.1,0.2-2.3,0.4-3.7,1c-2.5,1-6.3,3.5-7.3,3.7c-1.2,0.3-2.3,0.4-2.2-1.4c0-0.8,1.3-3.2,3.6-3.7
		c0.7-0.1,0.6,0.7,0.6,0.7s-0.1,1,0.7,1.1c1.2,0,1.7-0.7,1.7-1.5c0-0.9-1.7-3.8-5.1-2.1c0,0-3.1,1.5-4.2,4c-0.4,0.9-0.4,1.4-0.4,1.8
		c-0.5,0.3-0.8,0.5-0.9,0.5c-0.3,0.2-0.9,0.2-1.1-0.3c-0.2-1.4,2.8-6.1,2.7-6.6c0-0.5-1.9-0.1-2.1,0c-0.2,0.1-0.4,0.1-0.6,0.4
		c-0.4,1.3-1.4,3.2-2.7,5.4l-0.1,0.1l0,0c-0.6,1.2-1.4,1.4-1.6,1.4c-0.1,0-0.2,0-0.3-0.1c-0.2-0.1-0.4-0.3-0.3-0.9
		c0.1-0.5,1.9-4,2-5.2c0.1-1.3-0.9-1.3-2-1c-1.5,0.4-3.7,3.1-4.6,3.9c-0.9,0.9-0.7,0.1-0.7-0.1s0.9-2.6,1-3.3
		c0.2-0.7-0.7-0.9-1.6-0.4c-0.3,0.2-4.4,2.6-6.1,3.7c-0.1-1.4,0.1-3,0.5-4.3c0.8-2,2.2-3.6,6.4-3.5c0.5-0.1,0.5-0.3,0.6-0.6
		c0.1-0.3,0.3-1.4-0.1-1.8c0,0-7.3-2-9.6,5.2c-0.4,1.4-0.4,3.8-0.1,6.5c-0.5,0.3-1.8,1.1-2.1,1.3c-2.1,1.2-1.6-0.1-0.9-1.4
		c0.6-1.2,2-3.9,2-3.9s-0.8-1.1-1.8-1.4c-0.5,0.7-2.4,4.4-5.7,6c-1.2,0.5-1.7-0.7-1.4-1.4c0.3-0.7,0.9-2.7,4.4-3l0,0h0.1l1.2-0.1
		c0,0,1.3-1.5,0-2l0,0c0,0-6.6-2.3-8.8,5.2c-0.7,3.1,0.9,5.1,3.2,5.1c1.1-0.1,3.1-0.7,5-3.9c-0.4,1.6-0.9,3.7,1.4,4.2
		c1.3,0.2,2.6-0.8,3.9-1.8c0.6,3.2,1.7,6.5,3.3,8.9c0.3,0.4,1,0.3,1.4,0.1c0.4-0.2,1.2-0.6,0.9-1.4c-0.2-0.5-2.4-4.4-3.3-8.9
		c0.8-0.7,2.3-1.7,2.8-2c0.6-0.4,0.9-0.6,0.9-0.1c0,0.9-1.4,2.9-1.4,4.4c0.1,1.2,0.9,1.2,1.6,0.9c1-0.5,5.1-5.5,5.7-6.1
		c0.1,0.6-1,3.5-1.2,4.5s0.1,1.4,0.8,1.7c1.2,0.6,3.4-0.7,4-1.1c0.1,0.3,0.2,0.4,0.2,0.4c0.3,0.5,1,0.9,2.3,0.8
		c0.9,0,2.1-0.8,3.2-1.5c0.6,1,2.1,1.8,4.6,1.4c0.2-0.1,0.5-0.1,0.7-0.2l0.5-0.2c2-0.7,2.9-1.5,5.1-2.8c3.3-1.7,6.5-2.8,8.6-2.4
		C-25.7,319.7-26.7,318.6-29.1,318.9"/>
	<path id="path11" d="M-44.4,314.7c0.3-0.4,1.8-2.3,1.4-2.7c-0.4-0.4-2.1-0.3-2.4,0.3c-0.4,0.6-1.3,2.5-1.3,2.5
		S-44.9,314.4-44.4,314.7"/>
</g>
<path d="M-138.3,310.5V329h18.5v-18.5H-138.3z M-133.3,324.7h-2.5v-5.6h2.5V324.7z M-133.3,317.8h-2.5v-3.1h2.5V317.8z
	 M-129.6,324.7h-2.5v-5.6h2.5V324.7z M-129.6,317.8h-2.5v-3.1h2.5V317.8z M-125.5,324.8c-1.9,0-3.3-1.3-3.3-3.1c0-0.1,0-0.2,0-0.2
	h2.4v0.1c0,0.6,0.4,1,0.9,1s0.9-0.4,0.9-0.9s-0.4-0.8-1.3-1.1c-1.3-0.5-2.8-1.1-2.8-2.9s1.4-3,3.2-3s3.2,1.2,3.2,3
	c0,0.1,0,0.2,0,0.2h-2.3v-0.1c0-0.6-0.4-1-0.9-1s-0.8,0.3-0.8,0.8s0.4,0.8,1.4,1.1c1.3,0.5,2.8,1.1,2.8,3
	C-122.2,323.5-123.6,324.8-125.5,324.8z"/>
</svg>
