<?xml version="1.0"?>
<svg width="315.044" height="94.691" xmlns="http://www.w3.org/2000/svg">
 <metadata id="metadata59">image/svg+xml</metadata>

 <g>
  <title>background</title>
  <rect fill="none" id="canvas_background" height="402" width="582" y="-1" x="-1"/>
 </g>
 <g>
  <title>Layer 1</title>
  <g id="g3">
   <polygon id="polygon5" points="111.304,32.007 111.304,28.953 93.948,28.953 93.948,32.315 104.071,32.315 93.438,40.935    93.438,44.031 111.443,44.031 111.443,40.668 100.581,40.668  " fill="#000000"/>
   <path id="path7" d="m129.947006,30.208c-1.218002,-0.927 -3.753998,-1.378 -7.751999,-1.378c-4.478996,0 -7.247993,0.457001 -8.462997,1.395c-1.264,0.973999 -1.877998,3.169001 -1.877998,6.711c0,3.012001 0.627998,4.933998 1.918999,5.876999c1.236,0.901001 3.778,1.34 7.773003,1.34c4.423996,0 7.167992,-0.445 8.389,-1.360001c1.270996,-0.952 1.889999,-3.075001 1.889999,-6.489998c-0.000015,-3.136002 -0.614014,-5.130001 -1.878006,-6.095001zm-3.88501,10.005001c-0.135994,0.126999 -0.833,0.537998 -4.083,0.537998c-3.341995,0 -4.153999,-0.347 -4.348,-0.494999c-0.134995,-0.104 -0.575996,-0.640999 -0.575996,-3.167c0,-3.636002 0.43,-4.254002 0.514999,-4.34c0.086998,-0.087002 0.698997,-0.518002 4.315002,-0.518002c3.412994,0 4.091995,0.375999 4.220001,0.492001c0.086998,0.077999 0.516998,0.625999 0.516998,3.722c0,3.014 -0.429001,3.646999 -0.560005,3.768002z" fill="#000000"/>
   <path id="path9" d="m148.983994,37.558998l0.033997,1.866001l-0.630005,-0.889c-0.644989,-0.898998 -1.210999,-1.665001 -1.69899,-2.295998l-5.659012,-7.288002l-7.633987,0l0,15.077999l5.138992,0l-0.000992,-8.574997l-0.032013,-1.854l0.356003,0.523998c0.638,0.952 1.119003,1.638 1.432999,2.036999l6.202011,7.867001l7.630997,0l0,-15.076l-5.141006,0l0.001007,8.605999z" fill="#000000"/>
   <polygon id="polygon11" points="161.422,37.861 171.32,37.861 171.32,34.775 161.422,34.775 161.422,32.315 171.861,32.315    171.861,28.953 156.283,28.953 156.283,44.031 171.953,44.031 171.953,40.668 161.422,40.668  " fill="#000000"/>
   <path id="path13" d="m188.188004,35.708c-0.289001,0.487 -0.630005,1.148998 -1.013,1.961998l-0.486008,1.010002l-0.492996,-1.028c-0.427002,-0.848999 -0.772003,-1.500999 -1.035995,-1.960999l-3.938004,-6.737001l-7.419006,0l0,15.078001l5.139008,0l0,-8.167c0,-0.444 -0.018997,-0.951 -0.052994,-1.512001c0.335999,0.673 0.622986,1.209999 0.854996,1.599998l4.85199,8.079002l4.296005,0l4.807007,-8.151001c0.203995,-0.357002 0.477997,-0.879002 0.825989,-1.570999c-0.029999,0.562 -0.04599,1.084 -0.04599,1.556l0,8.167l5.140991,0l0,-15.080002l-7.561996,0l-3.869995,6.755001z" fill="#000000"/>
   <path id="path15" d="m207.546997,28.952999l-7.591995,15.077999l5.513,0l1.311996,-2.676998l8.404007,0l1.345993,2.676998l5.436996,0l-7.709,-15.077999l-6.710999,0zm0.735001,9.315002l2.681,-5.424l2.727005,5.424l-5.408005,0z" fill="#000000"/>
   <path id="path17" d="m237.917007,35.708c-1.011002,-0.521 -3.084991,-0.833 -6.339996,-0.952c-3.389999,-0.121002 -4.291,-0.285999 -4.524002,-0.373001c-0.298004,-0.111 -0.341995,-0.707001 -0.341995,-1.052998c0,-0.641003 0.261002,-0.831001 0.516998,-0.934002c0.350998,-0.139999 1.244003,-0.306 3.507996,-0.306c1.992996,0 2.624008,0.154999 2.824997,0.248001c0.300003,0.139 0.417007,0.635998 0.459,0.961998c0,0.077999 0.012009,0.202999 0.037003,0.369999l0.072998,0.482002l4.969009,0l0,-1.098c0,-2.094002 -1.082001,-3.02 -1.990005,-3.428001c-1.188004,-0.535999 -3.363998,-0.796999 -6.649994,-0.796999c-3.469009,0 -5.740997,0.284 -6.950012,0.868999c-1.325989,0.643 -1.998993,1.909 -1.998993,3.764002c0,1.813999 0.570999,3.031998 1.697998,3.618c1.012009,0.526997 3.184998,0.849998 6.641006,0.981998l2.21199,0.092999c1.562012,0.059002 2.037003,0.247002 2.172012,0.326c0.233994,0.138 0.28299,0.540001 0.28299,0.854c0,0.465 -0.07399,1.059002 -0.431992,1.241001c-0.23201,0.118 -0.953003,0.314999 -3.17601,0.314999c-2.901001,0 -3.752991,-0.176998 -4.001999,-0.281998c-0.353989,-0.149002 -0.427002,-0.771 -0.427994,-1.292999l-0.042007,-0.835003l-5.020996,0l0.033005,1.077999c0,1.848003 0.655991,3.105003 1.949997,3.737003c1.177994,0.573997 3.421997,0.854 6.860001,0.854c3.813995,0 6.238998,-0.285 7.412994,-0.872002c1.284012,-0.644001 1.936005,-2.021 1.936005,-4.098c-0.001007,-1.723 -0.569016,-2.893002 -1.690002,-3.472z" fill="#000000"/>
   <polygon id="polygon19" points="239.57,32.458 245.664,32.458 245.664,44.031 250.804,44.031 250.804,32.458 257.113,32.458    257.113,28.953 239.57,28.953  " fill="#000000"/>
   <polygon id="polygon21" points="262.727,37.861 272.623,37.861 272.623,34.775 262.727,34.775 262.727,32.315 273.165,32.315    273.165,28.953 257.588,28.953 257.588,44.031 273.258,44.031 273.258,40.668 262.727,40.668  " fill="#000000"/>
   <path id="path23" d="m291.509003,37.602001c0.458008,-0.192001 0.812012,-0.424 1.070007,-0.695c0.598999,-0.633003 0.889984,-1.706001 0.889984,-3.279003c0,-1.758999 -0.587006,-3.004999 -1.742981,-3.702999c-1.081024,-0.653 -2.927002,-0.972 -5.644012,-0.972l-10.975006,0l0,15.077999l5.139008,0l0,-4.698997l5.200012,0c2.649994,0 2.649994,1.153999 2.649994,1.589001l0,3.109997l5.138977,0l0,-3.642998c0,-0.999001 -0.348999,-2.146 -1.725983,-2.785999zm-11.263,-5.287003l5.463989,0c1.602997,0 2.076019,0.225002 2.205017,0.319c0.10498,0.080002 0.352997,0.382999 0.352997,1.473c0,0.766003 -0.149994,1.279003 -0.438019,1.485001c-0.194977,0.142002 -0.767975,0.378002 -2.396973,0.378002l-5.187012,0l0,-3.655003z" fill="#000000"/>
  </g>
  <g id="g25">
   <path id="path27" d="m96.305,59.404999l1.250999,0l0,3.812c0.281998,-0.365997 0.620003,-0.646 1.013,-0.84s0.818001,-0.289997 1.277,-0.289997c0.957001,0 1.734001,0.327999 2.330002,0.982998c0.596001,0.656002 0.893997,1.622002 0.893997,2.900002c0,1.210999 -0.294998,2.216995 -0.883003,3.017998c-0.588997,0.801003 -1.404999,1.201004 -2.447998,1.201004c-0.584,0 -1.076996,-0.141006 -1.478996,-0.422005c-0.238998,-0.167 -0.495003,-0.433998 -0.769005,-0.800995l0,0.978996l-1.186996,0l0,-10.540001l0.000999,0zm4.921997,8.817001c0.347,-0.553001 0.520004,-1.281998 0.520004,-2.188004c0,-0.806 -0.173004,-1.473999 -0.520004,-2.002998c-0.348,-0.528999 -0.856995,-0.793999 -1.531998,-0.793999c-0.588997,0 -1.103996,0.218002 -1.545998,0.651001s-0.664001,1.148003 -0.664001,2.145996c0,0.720001 0.090996,1.304001 0.272003,1.752007c0.339996,0.843994 0.973999,1.265999 1.900993,1.265999c0.698006,0 1.221001,-0.276001 1.569,-0.830002z" fill="#000000"/>
   <path id="path29" d="m109.037003,62.286999l1.422997,0c-0.181,0.492001 -0.584,1.612 -1.208,3.363003c-0.468002,1.316002 -0.858002,2.389999 -1.172997,3.219002c-0.743004,1.952995 -1.267006,3.144997 -1.571999,3.572998c-0.305,0.429001 -0.828003,0.643997 -1.571007,0.643997c-0.181,0 -0.32,-0.007996 -0.417999,-0.020996c-0.098,-0.014999 -0.217995,-0.041 -0.361,-0.079002l0,-1.172997c0.223999,0.061996 0.386002,0.100998 0.485001,0.113998c0.100998,0.014999 0.188004,0.020996 0.264999,0.020996c0.237999,0 0.413002,-0.039001 0.524002,-0.116997c0.112,-0.079002 0.206001,-0.175003 0.281998,-0.289001c0.023003,-0.038002 0.109001,-0.233002 0.257004,-0.584999c0.146996,-0.353004 0.254997,-0.613998 0.320999,-0.785004l-2.832001,-7.884998l1.459,0l2.053001,6.239002l2.066002,-6.239002z" fill="#000000"/>
  </g>
  <g id="g31">
   <path id="path33" d="m169.056,65.310997c0.296005,-0.037994 0.492996,-0.161995 0.593994,-0.370995c0.057007,-0.115005 0.085007,-0.279999 0.085007,-0.496002c0,-0.439003 -0.154999,-0.758999 -0.466995,-0.958c-0.312012,-0.198002 -0.758011,-0.298 -1.338013,-0.298c-0.67099,0 -1.146988,0.182999 -1.427994,0.546001c-0.156998,0.202 -0.259995,0.500999 -0.306992,0.898003l-1.201004,0c0.022995,-0.946003 0.328995,-1.604004 0.916992,-1.976006c0.589005,-0.369999 1.271011,-0.556 2.046997,-0.556c0.899002,0 1.631012,0.172001 2.192001,0.515003c0.557999,0.343998 0.835999,0.877998 0.835999,1.603001l0,4.411995c0,0.134003 0.027008,0.241005 0.082001,0.320999c0.055008,0.081001 0.171005,0.122002 0.347,0.122002c0.058014,0 0.122009,-0.003998 0.193008,-0.011002c0.070999,-0.007996 0.147003,-0.018997 0.229004,-0.031998l0,0.951004c-0.200012,0.056999 -0.353012,0.092995 -0.457001,0.105995c-0.105011,0.014999 -0.248001,0.021004 -0.430008,0.021004c-0.442993,0 -0.764999,-0.157005 -0.964996,-0.472c-0.104996,-0.167 -0.179001,-0.402 -0.222,-0.708c-0.263,0.344002 -0.639999,0.641998 -1.130005,0.894997c-0.490997,0.251999 -1.031998,0.379005 -1.623001,0.379005c-0.710999,0 -1.291,-0.216003 -1.741989,-0.646004c-0.450012,-0.431 -0.67601,-0.971001 -0.67601,-1.617996c0,-0.709007 0.222,-1.259003 0.665009,-1.649002s1.024994,-0.631004 1.744995,-0.722l2.054001,-0.256004zm-2.710007,3.478004c0.270996,0.213997 0.593002,0.32 0.964996,0.32c0.453003,0 0.891998,-0.104004 1.315002,-0.313004c0.716003,-0.348 1.072998,-0.917 1.072998,-1.707001l0,-1.034996c-0.156998,0.100998 -0.358994,0.184998 -0.606003,0.250999c-0.248001,0.067001 -0.48999,0.114998 -0.729004,0.143997l-0.776993,0.100006c-0.466995,0.061996 -0.817001,0.159996 -1.052002,0.292999c-0.397995,0.223999 -0.597992,0.579994 -0.597992,1.07c0.001007,0.369995 0.136002,0.661995 0.408997,0.876999z" fill="#000000"/>
   <path id="path35" d="m173.095993,62.286999l1.222992,0l0,1.087002c0.362,-0.446999 0.746002,-0.77 1.151001,-0.965s0.855011,-0.292999 1.352005,-0.292999c1.087006,0 1.819992,0.378998 2.201996,1.136997c0.210007,0.415001 0.314011,1.008003 0.314011,1.779999l0,4.913002l-1.309006,0l0,-4.826996c0,-0.467003 -0.069,-0.844002 -0.207001,-1.130005c-0.229004,-0.476997 -0.643997,-0.715 -1.244003,-0.715c-0.306,0 -0.556,0.031002 -0.750992,0.093002c-0.353012,0.105 -0.66301,0.313999 -0.930008,0.630001c-0.214996,0.251999 -0.354004,0.514 -0.417999,0.781998c-0.063995,0.270004 -0.097,0.653999 -0.097,1.154999l0,4.012001l-1.287003,0l0,-7.659l0.001007,0z" fill="#000000"/>
   <path id="path37" d="m185.447998,62.522999c0.229004,0.144001 0.487,0.394001 0.776001,0.750999l0,-3.868999l1.237,0l0,10.541l-1.158005,0l0,-1.066002c-0.298996,0.472 -0.653,0.812004 -1.061996,1.022003s-0.875992,0.314003 -1.403,0.314003c-0.849991,0 -1.585999,-0.358002 -2.207993,-1.076004c-0.622009,-0.717003 -0.934006,-1.671997 -0.934006,-2.863998c0,-1.114998 0.283997,-2.082001 0.852005,-2.899002s1.377991,-1.226997 2.432999,-1.226997c0.584,0.000999 1.07399,0.125 1.466995,0.372997zm-2.873001,5.742001c0.347,0.554001 0.901001,0.830002 1.665009,0.830002c0.592987,0 1.080002,-0.257004 1.46199,-0.770004c0.382004,-0.511993 0.572998,-1.246994 0.572998,-2.205994c0,-0.968002 -0.196991,-1.684006 -0.590988,-2.148003s-0.880005,-0.697002 -1.459,-0.697002c-0.645004,0 -1.167999,0.248001 -1.568008,0.743999c-0.399994,0.495003 -0.602005,1.224998 -0.602005,2.188004c0.001007,0.82 0.174011,1.505997 0.520004,2.058998z" fill="#000000"/>
  </g>
  <path id="path39" d="m125.363998,63.631001c0,0.929996 0.369003,1.852001 0.982002,2.466999c0.489998,0.491997 1.185997,0.847 2.183998,1.128998c0.5,0.152 1.055008,0.277 1.748001,0.398003l0.483002,0.073997c0.630005,0.096001 1.279999,0.189003 1.729004,0.424004c0.241989,0.135002 0.479996,0.301003 0.479996,0.719002c0,0.977997 -1.438995,1.241997 -2.289001,1.241997c-1.268005,0 -2.570007,-0.619003 -3.765999,-1.789001l-0.042999,0l-2.419998,2.195l-0.010002,0.023003l0.010002,0.023003c0.805,0.755997 2.687996,2.524994 6.329994,2.524994c2.979996,0 6.193008,-1.435997 6.193008,-4.593994c0,-3.014 -2.812012,-3.775002 -5.689011,-4.295006c-1.229996,-0.222996 -2.044998,-0.366997 -2.044998,-1.091995c0,-0.156002 0.089996,-0.939003 1.811996,-0.939003c1.02301,0 2.17601,0.457001 3.25,1.289001l0.03801,0l2.371994,-2.196999l0.007996,-0.025002l-0.009995,-0.022999l-0.052994,-0.031002c-0.893005,-0.625 -2.758011,-1.916 -5.779007,-1.916c-3.616997,0.000999 -5.514999,2.212002 -5.514999,4.393002" fill="#000000"/>
  <path id="path41" d="m137.634003,66.299004c0,4.106995 2.597992,6.764 6.612991,6.764c1.900009,0 3.654007,-0.658005 4.936005,-1.852005c0.664001,-0.616997 1.104996,-1.251999 1.572006,-1.952995l0.003998,-0.025002l-0.014008,-0.018005l-2.89299,-1.473l-0.041,0.014c-0.46701,0.907005 -1.167999,2.275002 -3.266006,2.275002c-0.834,0 -1.546997,-0.272995 -2.061005,-0.792999c-0.560989,-0.568001 -0.875,-1.419998 -0.875,-2.351997l0,-0.033005l9.270004,0l0.020004,-0.007996l0.011993,-0.023003c-0.046997,-1.400002 -0.136993,-4.011997 -1.854996,-5.855c-1.143005,-1.229 -2.768005,-1.881001 -4.710999,-1.881001c-4.951004,0 -6.710999,3.727001 -6.710999,7.213005m4.009995,-1.906006c0.126999,-0.546997 0.255997,-1.108997 0.755997,-1.661999c0.295013,-0.313999 0.934006,-0.835999 1.922012,-0.835999c0.700989,0 1.40799,0.27 1.847992,0.713001c0.531006,0.556 0.639008,1.262997 0.709,1.789001l-5.233994,0l0,-0.004005l-0.001007,0z" fill="#000000"/>
  <path id="path43" d="m123.735001,70.462997c0,1.381004 -1.114998,2.496002 -2.496002,2.496002s-2.496002,-1.114998 -2.496002,-2.496002c0,-1.378998 1.115005,-2.498001 2.496002,-2.498001s2.496002,1.119003 2.496002,2.498001" fill="#000000"/>
  <path d="m247.322998,65.238998c-1.091003,0.163002 -2.276993,0.422005 -3.744003,1.025002c-2.524002,0.984001 -6.276993,3.500999 -7.304001,3.653999c-1.179993,0.290001 -2.250992,0.367004 -2.220001,-1.409996c0.014008,-0.834 1.283005,-3.186005 3.571014,-3.656006c0.658997,-0.071999 0.633987,0.688004 0.633987,0.688004s-0.103989,0.997002 0.686005,1.07c1.167999,0 1.733002,-0.671997 1.733002,-1.541c-0.035004,-0.868004 -1.682999,-3.776001 -5.057007,-2.083c0,0 -3.059998,1.545998 -4.181,3.977997c-0.394989,0.854004 -0.442001,1.397003 -0.429993,1.811005c-0.451996,0.271996 -0.800995,0.473 -0.895996,0.524002c-0.312012,0.173996 -0.867004,0.173996 -1.075012,-0.312004c-0.207001,-1.421997 2.774002,-6.139 2.740005,-6.624001s-1.906998,-0.104 -2.115005,-0.035999c-0.209,0.070999 -0.382996,0.070999 -0.554993,0.417c-0.417007,1.284 -1.354004,3.225002 -2.671997,5.445004c-0.027008,0.046997 -0.054001,0.091995 -0.081009,0.139999c0,-0.003006 -0.000992,-0.004005 -0.000992,-0.006004c-0.632004,1.200005 -1.367004,1.374001 -1.576004,1.399002c-0.132004,-0.007004 -0.242996,-0.036003 -0.317993,-0.079002c-0.185013,-0.100998 -0.381012,-0.311996 -0.277008,-0.900002c0.097,-0.547997 1.942001,-4.006996 2.046997,-5.168995c0.112,-1.274002 -0.914001,-1.317001 -2.046997,-1.040001c-1.473999,0.361 -3.744995,3.052998 -4.612991,3.919003c-0.867004,0.867996 -0.693008,0.104996 -0.659012,-0.138c0.035004,-0.243004 0.867004,-2.602001 1.040009,-3.261002c0.175003,-0.659 -0.720001,-0.859001 -1.595001,-0.381001c-0.317001,0.173 -4.354004,2.642002 -6.089996,3.679996c-0.063004,-1.442993 0.07399,-2.979996 0.470993,-4.340996c0.798996,-2.012001 2.186996,-3.573002 6.417007,-3.468002c0.485001,-0.069 0.485001,-0.294998 0.589996,-0.555c0.138992,-0.348 0.347,-1.387997 -0.104004,-1.838997c0,0 -7.283005,-2.047001 -9.572998,5.167c-0.380005,1.385998 -0.434998,3.805 -0.126999,6.543999c-0.537994,0.342003 -1.770996,1.124001 -2.121994,1.330002c-2.063004,1.213997 -1.584015,-0.139 -0.948013,-1.387001c0.637009,-1.248001 2.008011,-3.920002 2.008011,-3.920002s-0.758011,-1.146 -1.82901,-1.354c-0.501999,0.729 -2.40799,4.404999 -5.654999,6.036003c-1.203003,0.485001 -1.671997,-0.693001 -1.404999,-1.422005c0.268005,-0.728996 0.903,-2.738998 4.384003,-2.982994c0.013,-0.005005 0.024994,-0.011002 0.039001,-0.016006l0.056992,-0.005997l1.203003,-0.052002c0,0 1.296005,-1.515999 -0.020996,-2.025997c-0.003006,-0.010002 -0.005997,-0.014999 -0.005997,-0.014999s-6.580002,-2.325001 -8.766998,5.165997c-0.702011,3.088005 0.937988,5.064003 3.179001,5.098999c1.070999,-0.068001 3.112,-0.728996 4.985992,-3.918999c-0.403,1.597 -0.938004,3.677002 1.404007,4.195999c1.311996,0.188004 2.598999,-0.830994 3.937988,-1.828995c0.621002,3.201996 1.703003,6.5 3.291,8.904999c0.348007,0.416 1.041,0.277 1.422012,0.069c0.382996,-0.209 1.213989,-0.555 0.867996,-1.353004c-0.225998,-0.518997 -2.350998,-4.413994 -3.274002,-8.933998c0.826004,-0.651001 2.309998,-1.703003 2.753998,-1.990997c0.589005,-0.381004 0.900009,-0.589005 0.936005,-0.138c0,0.935997 -1.352005,2.946999 -1.352005,4.403c0.138,1.214996 0.895004,1.236 1.559998,0.867996c0.960999,-0.531998 5.100006,-5.548996 5.723999,-6.103996c0.070007,0.589996 -1.041,3.502998 -1.213989,4.508995s0.103989,1.388 0.763,1.665001c1.172989,0.57 3.376999,-0.699997 4.024002,-1.103996c0.084991,0.265999 0.172989,0.413002 0.172989,0.413002c0.347,0.450996 1.005997,0.885994 2.28801,0.832001c0.871994,-0.036003 2.126999,-0.792 3.200989,-1.548004c0.632004,0.973 2.061005,1.827003 4.616013,1.417999c0.230988,-0.059998 0.450989,-0.118996 0.658997,-0.181l0.526001,-0.167c1.957001,-0.664001 2.869995,-1.517998 5.067001,-2.813995c3.325989,-1.669006 6.547989,-2.846001 8.64299,-2.448006c-0.373993,-1.077995 -1.315002,-2.182999 -3.738998,-1.82" fill="#000000" id="path45"/>
  <g id="g47">
   <path id="path49" d="m53.087002,14.212l0,16.308001l16.303997,0c0,-8.992001 -7.313999,-16.308001 -16.303997,-16.308001z" fill="#000000"/>
   <path id="path51" d="m53.087002,46.824001l0,-16.304001l-16.302002,0c0,8.989998 7.313,16.304001 16.302002,16.304001z" fill="#000000"/>
   <path id="path53" d="m74.900002,27.955999c-1.271004,-10.92 -10.546005,-19.396999 -21.807003,-19.396999c-6.354,0 -12.074997,2.701 -16.084999,7.015c-1.690998,-1.104 -3.707001,-1.751 -5.875999,-1.751c-5.535999,0 -10.091,4.176001 -10.701,9.547001c-5.863,1.91 -10.106,7.414 -10.106,13.914c0,8.085999 6.557,14.640999 14.641,14.640999c2.575001,0 4.992001,-0.669998 7.095001,-1.837997c1.920998,1.158997 4.163998,1.837997 6.570999,1.837997c2.013,0 3.909,-0.479 5.603001,-1.309998c2.709999,1.195999 5.706001,1.865997 8.857998,1.865997c4.695,0 9.042,-1.479 12.611004,-3.987c2.138,2.022999 5.017998,3.271999 8.195,3.271999c6.587997,0 11.93,-5.34 11.93,-11.931999c0,-6.248001 -4.810005,-11.368999 -10.929001,-11.878zm-21.813,19.995001c-9.610001,0 -17.429001,-7.819 -17.429001,-17.431c0,-9.613001 7.818001,-17.435 17.429001,-17.435c9.611,0 17.430996,7.821 17.430996,17.435c0,9.611 -7.819996,17.431 -17.430996,17.431z" fill="#000000"/>
  </g>
 </g>
</svg>