<?xml version="1.0" encoding="UTF-8" standalone="no"?>
<!-- Generator: Adobe Illustrator 19.1.0, SVG Export Plug-In . SVG Version: 6.00 Build 0)  -->

<svg
   xmlns:dc="http://purl.org/dc/elements/1.1/"
   xmlns:cc="http://creativecommons.org/ns#"
   xmlns:rdf="http://www.w3.org/1999/02/22-rdf-syntax-ns#"
   xmlns:svg="http://www.w3.org/2000/svg"
   xmlns="http://www.w3.org/2000/svg"
   xmlns:sodipodi="http://sodipodi.sourceforge.net/DTD/sodipodi-0.dtd"
   xmlns:inkscape="http://www.inkscape.org/namespaces/inkscape"
   version="1.1"
   id="Lager_1"
   x="0px"
   y="0px"
   viewBox="-262 250.6 315 94.7"
   style="enable-background:new -262 250.6 315 94.7;"
   xml:space="preserve"
   sodipodi:docname="zonemaster_logo_2020_color.svg"
   inkscape:version="0.92.5 (2060ec1f9f, 2020-04-08)"
   inkscape:export-filename="C:\Users\ampeau\Pictures\zonemaster_logo_2020_color.png"
   inkscape:export-xdpi="390.28513"
   inkscape:export-ydpi="390.28513"><metadata
   id="metadata3774"><rdf:RDF><cc:Work
       rdf:about=""><dc:format>image/svg+xml</dc:format><dc:type
         rdf:resource="http://purl.org/dc/dcmitype/StillImage" /><dc:title>logotypen_final</dc:title></cc:Work></rdf:RDF></metadata><defs
   id="defs3772"><style
     id="style3776">.cls-1{fill:#ff4069;}.cls-2{fill:#fff;fill-rule:evenodd;}</style></defs><sodipodi:namedview
   pagecolor="#ffffff"
   bordercolor="#666666"
   borderopacity="1"
   objecttolerance="10"
   gridtolerance="10"
   guidetolerance="10"
   inkscape:pageopacity="0"
   inkscape:pageshadow="2"
   inkscape:window-width="3840"
   inkscape:window-height="2066"
   id="namedview3770"
   showgrid="true"
   showguides="false"
   inkscape:guide-bbox="true"
   inkscape:zoom="11.11746"
   inkscape:cx="114.04834"
   inkscape:cy="25.29143"
   inkscape:window-x="1909"
   inkscape:window-y="-11"
   inkscape:window-maximized="1"
   inkscape:current-layer="Lager_1"><sodipodi:guide
     position="310.50257,205.80241"
     orientation="0,1"
     id="guide3859"
     inkscape:locked="false" /><inkscape:grid
     type="xygrid"
     id="grid3861" /></sodipodi:namedview>
<style
   type="text/css"
   id="style3713">
	.st0{fill:#000;}
	.st1{fill:none;}
</style>
<g
   id="g3735">
	<polygon
   class="st0"
   points="-168.1,279.5 -168.1,282.9 -157.9,282.9 -168.6,291.5 -168.6,294.6 -150.6,294.6 -150.6,291.3 -161.4,291.3 -150.7,282.6 -150.7,279.5 "
   id="polygon3715"
   style="fill:#000000" />
	<path
   class="st0"
   d="m -132.1,280.8 c -1.2,-0.9 -3.8,-1.4 -7.8,-1.4 -4.5,0 -7.2,0.5 -8.5,1.4 -1.3,1 -1.9,3.2 -1.9,6.7 0,3 0.6,4.9 1.9,5.9 1.2,0.9 3.8,1.3 7.8,1.3 4.4,0 7.2,-0.4 8.4,-1.4 1.3,-1 1.9,-3.1 1.9,-6.5 0.1,-3 -0.5,-5 -1.8,-6 z m -3.8,10 c -0.1,0.1 -0.8,0.5 -4.1,0.5 -3.3,0 -4.2,-0.3 -4.3,-0.5 -0.1,-0.1 -0.6,-0.6 -0.6,-3.2 0,-3.6 0.4,-4.3 0.5,-4.3 0.1,-0.1 0.7,-0.5 4.3,-0.5 3.4,0 4.1,0.4 4.2,0.5 0.1,0.1 0.5,0.6 0.5,3.7 0,3 -0.4,3.7 -0.5,3.8 z"
   id="path3717"
   inkscape:connector-curvature="0"
   style="fill:#000000" />
	<path
   class="st0"
   d="m -113,288.1 v 1.9 l -0.6,-0.9 c -0.6,-0.9 -1.2,-1.7 -1.7,-2.3 l -5.7,-7.3 h -7.6 v 15.1 h 5.1 v -8.6 -1.9 l 0.4,0.5 c 0.6,1 1.1,1.6 1.4,2 l 6.2,7.9 h 7.6 v -15.1 h -5.1 z"
   id="path3719"
   inkscape:connector-curvature="0"
   style="fill:#000000" />
	<polygon
   class="st0"
   points="-90.7,285.4 -100.6,285.4 -100.6,282.9 -90.1,282.9 -90.1,279.5 -105.7,279.5 -105.7,294.6 -90,294.6 -90,291.3 -100.6,291.3 -100.6,288.4 -90.7,288.4 "
   id="polygon3721"
   style="fill:#000000" />
	<path
   class="st0"
   d="m -73.8,286.3 c -0.3,0.5 -0.6,1.1 -1,2 l -0.5,1 -0.5,-1 c -0.4,-0.8 -0.8,-1.5 -1,-2 l -3.9,-6.7 h -7.4 v 15.1 h 5.1 v -8.2 c 0,-0.4 0,-1 -0.1,-1.5 0.3,0.7 0.6,1.2 0.9,1.6 l 4.9,8.1 h 4.3 l 4.8,-8.2 c 0.2,-0.4 0.5,-0.9 0.8,-1.6 0,0.6 0,1.1 0,1.6 v 8.2 h 5.1 v -15.1 h -7.6 z"
   id="path3723"
   inkscape:connector-curvature="0"
   style="fill:#000000" />
	<path
   class="st0"
   d="m -54.5,279.5 -7.6,15.1 h 5.5 l 1.3,-2.7 h 8.4 l 1.3,2.7 h 5.4 l -7.7,-15.1 z m 0.8,9.4 2.7,-5.4 2.7,5.4 z"
   id="path3725"
   inkscape:connector-curvature="0"
   style="fill:#000000" />
	<path
   class="st0"
   d="m -24.1,286.3 c -1,-0.5 -3.1,-0.8 -6.3,-1 -3.4,-0.1 -4.3,-0.3 -4.5,-0.4 -0.3,-0.1 -0.3,-0.7 -0.3,-1.1 0,-0.6 0.3,-0.8 0.5,-0.9 0.4,-0.1 1.2,-0.3 3.5,-0.3 2,0 2.6,0.2 2.8,0.2 0.3,0.1 0.4,0.6 0.5,1 0,0.1 0,0.2 0,0.4 l 0.1,0.5 h 5 v -1.1 c 0,-2.1 -1.1,-3 -2,-3.4 -1.2,-0.5 -3.4,-0.8 -6.6,-0.8 -3.5,0 -5.7,0.3 -6.9,0.9 -1.3,0.6 -2,1.9 -2,3.8 0,1.8 0.6,3 1.7,3.6 1,0.5 3.2,0.9 6.6,1 l 2.2,0.1 c 1.6,0.1 2,0.2 2.2,0.3 0.2,0.1 0.3,0.5 0.3,0.9 0,0.5 -0.1,1.1 -0.4,1.2 -0.2,0.1 -1,0.3 -3.2,0.3 -2.9,0 -3.8,-0.2 -4,-0.3 -0.4,-0.1 -0.4,-0.8 -0.4,-1.3 v -0.8 h -5 v 1.1 c 0,1.8 0.7,3.1 1.9,3.7 1.2,0.6 3.4,0.9 6.9,0.9 3.8,0 6.2,-0.3 7.4,-0.9 1.3,-0.6 1.9,-2 1.9,-4.1 -0.2,-1.8 -0.8,-2.9 -1.9,-3.5 z"
   id="path3727"
   inkscape:connector-curvature="0"
   style="fill:#000000" />
	<polygon
   class="st0"
   points="-16.3,294.6 -11.2,294.6 -11.2,283 -4.9,283 -4.9,279.5 -22.4,279.5 -22.4,283 -16.3,283 "
   id="polygon3729"
   style="fill:#000000" />
	<polygon
   class="st0"
   points="10.6,285.4 0.7,285.4 0.7,282.9 11.2,282.9 11.2,279.5 -4.4,279.5 -4.4,294.6 11.3,294.6 11.3,291.3 0.7,291.3 0.7,288.4 10.6,288.4 "
   id="polygon3731"
   style="fill:#000000" />
	<path
   class="st0"
   d="m 29.5,288.2 c 0.5,-0.2 0.8,-0.4 1.1,-0.7 0.6,-0.6 0.9,-1.7 0.9,-3.3 0,-1.8 -0.6,-3 -1.7,-3.7 -1.1,-0.7 -2.9,-1 -5.6,-1 h -11 v 15.1 h 5.1 v -4.7 h 5.2 c 2.6,0 2.6,1.2 2.6,1.6 v 3.1 h 5.1 V 291 c 0,-1 -0.3,-2.2 -1.7,-2.8 z m -11.3,-5.3 h 5.5 c 1.6,0 2.1,0.2 2.2,0.3 0.1,0.1 0.4,0.4 0.4,1.5 0,0.8 -0.1,1.3 -0.4,1.5 -0.2,0.1 -0.8,0.4 -2.4,0.4 h -5.2 z"
   id="path3733"
   inkscape:connector-curvature="0"
   style="fill:#000000" />
</g>


<g
   id="g3757">
	<path
   class="st0"
   d="m -208.9,264.8 v 16.3 h 16.3 c 0,-9 -7.3,-16.3 -16.3,-16.3 z"
   id="path3751"
   inkscape:connector-curvature="0"
   style="fill:#000000" />
	<path
   class="st0"
   d="m -208.9,297.4 v -16.3 h -16.3 c 0,9 7.3,16.3 16.3,16.3 z"
   id="path3753"
   inkscape:connector-curvature="0"
   style="fill:#000000" />
	<path
   class="st0"
   d="m -187.1,278.5 c -1.3,-10.9 -10.5,-19.4 -21.8,-19.4 -6.4,0 -12.1,2.7 -16.1,7 -1.7,-1.1 -3.7,-1.8 -5.9,-1.8 -5.5,0 -10.1,4.2 -10.7,9.5 -5.9,1.9 -10.1,7.4 -10.1,13.9 0,8.1 6.6,14.6 14.6,14.6 2.6,0 5,-0.7 7.1,-1.8 1.9,1.2 4.2,1.8 6.6,1.8 2,0 3.9,-0.5 5.6,-1.3 2.7,1.2 5.7,1.9 8.9,1.9 4.7,0 9,-1.5 12.6,-4 2.1,2 5,3.3 8.2,3.3 6.6,0 11.9,-5.3 11.9,-11.9 0,-6.1 -4.8,-11.2 -10.9,-11.8 z m -21.8,20 c -9.6,0 -17.4,-7.8 -17.4,-17.4 0,-9.6 7.8,-17.4 17.4,-17.4 9.6,0 17.4,7.8 17.4,17.4 0,9.6 -7.8,17.4 -17.4,17.4 z"
   id="path3755"
   inkscape:connector-curvature="0"
   style="fill:#000000" />
</g>

<g
   id="g3765"
   transform="matrix(0.97306989,0,0,0.97306989,49.666863,7.1109011)">
	<rect
   x="-140.60001"
   y="306.29999"
   class="st1"
   width="24"
   height="24"
   id="rect3763"
   style="fill:none" />
</g>

<title
   id="title3780">logotypen_final</title><path
   id="path3782"
   d="m -111.00446,323.95493 a 4.7451783,4.7451783 0 0 0 -1.79743,-0.8313 l -1.4896,-0.41341 c -1.05599,-0.29207 -1.39525,-0.6291 -1.39525,-1.37951 0,-0.75041 0.67404,-1.19753 1.78169,-1.19753 1.18404,0 1.83112,0.49878 1.92548,1.47614 v 0.12805 h 1.57274 l -0.0112,-0.14154 c -0.15952,-1.82438 -1.42219,-2.86239 -3.47799,-2.86239 -1.92324,0 -3.31624,1.09193 -3.31624,2.59727 0,1.42445 0.74144,2.29394 2.33664,2.73881 l 1.82662,0.51003 c 0.93691,0.26286 1.31886,0.6583 1.31886,1.34804 0,1.0178 -1.1099,1.37728 -2.06028,1.37728 -0.89872,0 -2.0221,-0.28759 -2.16364,-1.66037 l -0.0157,-0.10335 h -1.57273 l 0.0134,0.14155 c 0.1438,1.87156 1.58397,3.03539 3.7566,3.03539 2.08275,0 3.59483,-1.17731 3.59483,-2.79947 a 2.4354988,2.4354988 0 0 0 -0.8268,-1.96369 z"
   inkscape:connector-curvature="0"
   style="stroke-width:0.224677" /><polygon
   id="polygon3784"
   points="54.24,105.92 54.24,69.64 66.63,69.64 66.63,63.32 34.93,63.32 34.93,69.64 47.28,69.64 47.28,105.92 "
   transform="matrix(0.224677,0,0,0.224677,-117.54257,304.71809)" /><polygon
   id="polygon3786"
   points="115.94,81.01 115.94,69.64 135.56,69.64 135.56,63.32 108.98,63.32 108.98,105.92 115.94,105.92 115.94,87.37 134.11,87.37 134.11,81.01 "
   transform="matrix(0.224677,0,0,0.224677,-117.54257,304.71809)" /><polygon
   id="polygon3788"
   points="160.64,105.92 160.64,69.64 172.99,69.64 172.99,63.32 141.33,63.32 141.33,69.64 153.68,69.64 153.68,105.92 "
   transform="matrix(0.224677,0,0,0.224677,-117.54257,304.71809)" /><polygon
   id="polygon3790"
   points="178.3,63.32 178.3,105.92 206.97,105.92 206.97,99.56 185.26,99.56 185.26,87.37 204.15,87.37 204.15,81.01 185.26,81.01 185.26,69.64 206.97,69.64 206.97,63.32 "
   transform="matrix(0.224677,0,0,0.224677,-117.54257,304.71809)" /><polygon
   id="polygon3792"
   points="220.47,99.56 220.47,63.32 213.51,63.32 213.51,105.92 239.23,105.92 239.23,99.56 "
   transform="matrix(0.224677,0,0,0.224677,-117.54257,304.71809)" /><path
   id="path3794"
   d="m -58.598556,323.12363 -1.487366,-0.41341 c -1.058233,-0.29207 -1.397494,-0.6291 -1.397494,-1.37951 0,-0.75041 0.674036,-1.19753 1.781691,-1.19753 1.193032,0 1.840104,0.49878 1.925481,1.47837 l 0.01343,0.12582 h 1.572734 l -0.01343,-0.14154 c -0.15502,-1.81764 -1.426695,-2.86239 -3.489234,-2.86239 -1.920976,0 -3.316222,1.09193 -3.316222,2.59727 0,1.4222 0.741421,2.2917 2.336633,2.73881 l 1.824379,0.51003 c 0.932415,0.26286 1.312107,0.65605 1.312107,1.34804 0,1.0178 -1.109893,1.37728 -2.060281,1.37728 -0.898708,0 -2.022088,-0.28759 -2.165878,-1.66037 l -0.01343,-0.11458 h -1.572753 l 0.01343,0.14155 c 0.15502,1.87156 1.595203,3.03538 3.758843,3.03538 2.082759,0 3.594831,-1.17731 3.594831,-2.79947 0,-1.83336 -1.323345,-2.43776 -2.61748,-2.78375 z"
   inkscape:connector-curvature="0"
   style="stroke-width:0.224677" /><polygon
   id="polygon3796"
   points="280.19,63.32 280.19,105.92 308.86,105.92 308.86,99.56 287.15,99.56 287.15,87.37 306.04,87.37 306.04,81.01 287.15,81.01 287.15,69.64 308.86,69.64 308.86,63.32 "
   transform="matrix(0.224677,0,0,0.224677,-117.54257,304.71809)" /><polygon
   id="polygon3798"
   points="348.55,63.32 341.76,63.32 341.76,96.3 325.38,63.4 325.34,63.32 316.25,63.32 316.25,105.92 323,105.92 323,72.74 339.39,105.84 339.43,105.92 348.55,105.92 "
   transform="matrix(0.224677,0,0,0.224677,-117.54257,304.71809)" /><polygon
   id="polygon3800"
   points="73,63.32 73,69.68 83.92,69.68 83.92,99.52 73,99.52 73,105.92 101.67,105.92 101.67,99.52 90.92,99.52 90.92,69.68 101.67,69.68 101.67,63.32 "
   transform="matrix(0.224677,0,0,0.224677,-117.54257,304.71809)" /><polygon
   id="polygon3802"
   points="64.75,7.12 64.75,40.1 48.41,7.2 48.37,7.12 39.24,7.12 39.24,49.72 46.03,49.72 46.03,16.54 62.37,49.64 62.41,49.72 71.54,49.72 71.54,7.12 "
   transform="matrix(0.224677,0,0,0.224677,-117.54257,304.71809)" /><polygon
   id="polygon3804"
   points="96.5,49.72 96.5,13.44 108.89,13.44 108.89,7.12 77.19,7.12 77.19,13.44 89.53,13.44 89.53,49.72 "
   transform="matrix(0.224677,0,0,0.224677,-117.54257,304.71809)" /><polygon
   id="polygon3806"
   points="143.16,49.72 143.16,43.36 121.49,43.36 121.49,31.17 140.38,31.17 140.38,24.81 121.49,24.81 121.49,13.44 143.16,13.44 143.16,7.12 114.53,7.12 114.53,49.72 "
   transform="matrix(0.224677,0,0,0.224677,-117.54257,304.71809)" /><path
   id="path3808"
   d="m -79.316021,311.86731 0.09653,-0.0202 a 2.3860697,2.3860697 0 0 0 1.363796,-0.69424 c 0.47407,-0.47407 0.705486,-1.14137 0.705486,-2.0513 0,-0.9459 -0.242655,-1.63341 -0.734697,-2.08726 -0.492043,-0.45385 -1.276172,-0.69649 -2.300697,-0.69649 h -3.626282 v 9.57124 h 1.507578 v -3.9633 h 1.384007 l 0.018,0.0381 2.17488,3.92511 h 1.732249 z m -2.98821,-1.25595 v -2.92079 h 2.601765 c 0.608869,0 0.975093,0.34825 0.975093,0.92791 v 1.02453 a 0.92117573,0.92117573 0 0 1 -0.975093,0.97734 z"
   inkscape:connector-curvature="0"
   style="stroke-width:0.224677" /><polygon
   id="polygon3810"
   points="219.99,49.72 219.99,7.13 213.2,7.13 213.2,40.1 196.85,7.21 196.81,7.13 187.69,7.13 187.69,49.72 194.48,49.72 194.48,16.54 210.82,49.64 210.86,49.72 "
   transform="matrix(0.224677,0,0,0.224677,-117.54257,304.71809)" /><polygon
   id="polygon3812"
   points="255.82,49.72 255.82,43.36 234.16,43.36 234.16,31.18 253.05,31.18 253.05,24.82 234.16,24.82 234.16,13.44 255.82,13.44 255.82,7.13 227.2,7.13 227.2,49.72 "
   transform="matrix(0.224677,0,0,0.224677,-117.54257,304.71809)" /><polygon
   id="polygon3814"
   points="293.21,7.13 261.5,7.13 261.5,13.44 273.9,13.44 273.9,49.72 280.86,49.72 280.86,13.44 293.21,13.44 "
   transform="matrix(0.224677,0,0,0.224677,-117.54257,304.71809)" /><polygon
   id="polygon3816"
   points="31.32,49.72 31.32,43.35 20.57,43.35 20.57,13.45 31.32,13.45 31.32,7.12 2.75,7.12 2.75,13.45 13.59,13.45 13.59,43.35 2.75,43.35 2.75,49.72 "
   transform="matrix(0.224677,0,0,0.224677,-117.54257,304.71809)" /><polygon
   id="polygon3818"
   points="342.3,42.53 335.88,42.53 335.88,49.61 328.93,49.61 328.93,42.53 322.51,42.53 322.51,35.44 316.09,35.44 316.09,28.36 309.68,28.36 309.68,21.28 303.26,21.28 303.26,7.08 309.68,7.08 309.68,0 328.93,0 328.93,7.08 335.88,7.08 335.88,0 355.14,0 355.14,7.08 361.55,7.08 361.55,21.28 355.14,21.28 355.14,28.36 348.71,28.36 348.71,35.44 342.3,35.44 "
   class="cls-1"
   transform="matrix(0.224677,0,0,0.224677,-117.54257,304.71809)"
   style="fill:#ff4069" /><polygon
   id="polygon3820"
   points="350.1,11.71 354.47,11.71 354.47,16.34 345.56,16.34 345.56,6.94 350.1,6.94 "
   class="cls-2"
   transform="matrix(0.224677,0,0,0.224677,-117.54257,304.71809)"
   style="fill:#ffffff;fill-rule:evenodd" /><g
   transform="matrix(0.09663515,0,0,0.09663515,-29.252107,265.27324)"
   id="layer1"><path
     d="m 591.985,504.787 c -11.2663,1.68114 -23.5088,4.35197 -38.6695,10.5817 -26.0474,10.1682 -64.8017,36.1614 -75.4105,37.7408 -12.1781,2.98944 -23.2376,3.79274 -22.919,-14.571 0.14237,-8.60227 13.2491,-32.8872 36.8833,-37.7442 6.8025,-0.74567 6.53135,7.09397 6.53135,7.09397 0,0 -1.06426,10.3004 7.094,11.063 12.0628,0 17.8926,-6.94825 17.8926,-15.9166 -0.35929,-8.96493 -17.3672,-38.9813 -52.2203,-21.5091 0,0 -31.5755,15.9606 -43.1604,41.0658 -4.06725,8.82258 -4.56888,14.4286 -4.43671,18.6992 -4.67056,2.80982 -8.2667,4.87734 -9.24624,5.41964 -3.21991,1.79299 -8.95137,1.79299 -11.1002,-3.22331 -2.14887,-14.6794 28.6471,-63.3883 28.2946,-68.4012 -0.35928,-5.0129 -19.6991,-1.07104 -21.848,-0.35589 -2.14888,0.71516 -3.93508,0.71516 -5.72808,4.29775 -4.30113,13.2491 -13.9677,33.3041 -27.576,56.2231 -0.2881,0.4813 -0.56604,0.95581 -0.84057,1.43033 0,-0.0169 -0.007,-0.0373 -0.0131,-0.0541 -6.53135,12.3882 -14.1134,14.188 -16.2792,14.4523 -1.35915,-0.0746 -2.50477,-0.37621 -3.27753,-0.80327 -1.90823,-1.0609 -3.94526,-3.22671 -2.86404,-9.31403 0.99308,-5.6569 20.0618,-41.3675 21.1227,-53.3625 1.16934,-13.1678 -9.42588,-13.6084 -21.1227,-10.7444 -15.2217,3.72832 -38.6797,31.5179 -47.6344,40.4693 -8.95136,8.95476 -7.16178,1.07781 -6.8025,-1.43372 0.35929,-2.50475 8.95136,-26.8575 10.741,-33.6634 1.79299,-6.80589 -7.4397,-8.86325 -16.4724,-3.93509 -3.27756,1.78623 -44.9636,27.2812 -62.8901,37.9984 -0.64737,-14.8997 0.77277,-30.7824 4.87394,-44.8179 8.2396,-20.7702 22.5631,-36.8867 66.2523,-35.8089 5.0129,-0.71516 5.0163,-3.05045 6.09073,-5.73146 1.43032,-3.58258 3.5792,-14.3235 -1.07783,-18.9806 0,0 -75.2037,-21.1294 -98.8379,53.3591 -3.94184,14.293 -4.49094,39.2694 -1.32185,67.5606 -5.54844,3.53174 -18.2925,11.6053 -21.9056,13.7372 -21.3057,12.5306 -16.3538,-1.43371 -9.78854,-14.3269 6.56524,-12.8932 20.7261,-40.4659 20.7261,-40.4659 0,0 -7.82948,-11.8222 -18.8891,-13.9711 -5.17899,7.52444 -24.8747,45.4822 -58.3822,62.3139 -12.4356,5.01629 -17.2757,-7.16177 -14.5133,-14.6828 2.76574,-7.52104 9.33098,-28.2912 45.2585,-30.7959 0.12875,-0.0508 0.26436,-0.11522 0.39994,-0.17625 l 0.59654,-0.0474 12.4153,-0.53215 c 0,0 13.3847,-15.6556 -0.22709,-20.9294 -0.0306,-0.1051 -0.0577,-0.15929 -0.0577,-0.15929 0,0 -67.9403,-23.9968 -90.5136,53.3591 -7.25668,31.8704 9.6733,52.2813 32.8194,52.6406 11.0562,-0.71516 32.1314,-7.51766 51.478,-40.4659 -4.14861,16.4758 -9.67332,37.9645 14.5099,43.3299 13.5338,1.92855 26.8338,-8.57516 40.6523,-18.8992 6.41272,33.0702 17.5841,67.12 33.9854,91.9574 3.5792,4.29775 10.7444,2.86404 14.6828,0.71857 3.94187,-2.14889 12.5339,-5.72808 8.95136,-13.9677 -2.32511,-5.34844 -24.268,-45.5737 -33.7956,-92.2421 8.53108,-6.72794 23.8443,-17.5875 28.4268,-20.5567 6.08731,-3.93846 9.30725,-6.08733 9.66992,-1.43031 0,9.66652 -13.9677,30.4401 -13.9677,45.4822 1.43035,12.5339 9.23608,12.7644 16.1131,8.95476 9.91057,-5.4942 52.644,-57.301 59.0939,-63.029 0.71517,6.08395 -10.7478,36.1681 -12.5373,46.5532 -1.7896,10.3851 1.07441,14.3269 7.88032,17.191 12.1069,5.89416 34.87,-7.23633 41.5606,-11.4019 0.86767,2.74202 1.77267,4.25708 1.77267,4.25708 3.57917,4.65361 10.3884,9.14117 23.6308,8.59547 8.99881,-0.36943 21.9564,-8.17858 33.0397,-15.9911 6.53813,10.0597 21.2887,18.8789 47.6649,14.6421 2.40646,-0.60668 4.66041,-1.22018 6.80927,-1.85737 l 5.44674,-1.71841 c 20.1974,-6.86351 29.6334,-15.6691 52.3254,-29.0538 34.3311,-17.2316 67.5979,-29.3928 89.2222,-25.2814 -3.83678,-11.1613 -13.5609,-22.5665 -38.5814,-18.8348 M 434.272,465.382 c 2.81997,-3.91135 17.252,-22.0683 13.4864,-25.6984 -3.75884,-3.63341 -19.7534,-2.5183 -23.2004,3.07079 -3.45039,5.58573 -11.9272,23.5156 -11.9272,23.5156 0,0 16.3097,-3.9588 21.6412,-0.88801"
     style="fill:#0d263d;fill-opacity:1;fill-rule:nonzero;stroke:none"
     id="path94"
     inkscape:connector-curvature="0" /></g></svg>