<?xml version="1.0" encoding="UTF-8" standalone="no"?>
<!-- Generator: Adobe Illustrator 16.0.4, SVG Export Plug-In . SVG Version: 6.00 Build 0)  -->

<svg
   xmlns:dc="http://purl.org/dc/elements/1.1/"
   xmlns:cc="http://creativecommons.org/ns#"
   xmlns:rdf="http://www.w3.org/1999/02/22-rdf-syntax-ns#"
   xmlns:svg="http://www.w3.org/2000/svg"
   xmlns="http://www.w3.org/2000/svg"
   xmlns:sodipodi="http://sodipodi.sourceforge.net/DTD/sodipodi-0.dtd"
   xmlns:inkscape="http://www.inkscape.org/namespaces/inkscape"
   version="1.1"
   id="Lager_1"
   x="0px"
   y="0px"
   width="315.044px"
   height="94.691px"
   viewBox="0 0 315.044 94.691"
   enable-background="new 0 0 315.044 94.691"
   xml:space="preserve"
   inkscape:version="0.48.4 r9939"
   sodipodi:docname="zonemaster_logo-4.svg"><metadata
     id="metadata59"><rdf:RDF><cc:Work
         rdf:about=""><dc:format>image/svg+xml</dc:format><dc:type
           rdf:resource="http://purl.org/dc/dcmitype/StillImage" /><dc:title></dc:title></cc:Work></rdf:RDF></metadata><defs
     id="defs57" /><sodipodi:namedview
     pagecolor="#ff4dff"
     bordercolor="#666666"
     borderopacity="1"
     objecttolerance="10"
     gridtolerance="10"
     guidetolerance="10"
     inkscape:pageopacity="0.34509804"
     inkscape:pageshadow="2"
     inkscape:window-width="640"
     inkscape:window-height="480"
     id="namedview55"
     showgrid="false"
     inkscape:zoom="1.072866"
     inkscape:cx="157.522"
     inkscape:cy="47.345501"
     inkscape:window-x="0"
     inkscape:window-y="0"
     inkscape:window-maximized="0"
     inkscape:current-layer="Lager_1" /><g
     id="g3"><polygon
       fill="#FFFFFF"
       points="111.304,32.007 111.304,28.953 93.948,28.953 93.948,32.315 104.071,32.315 93.438,40.935    93.438,44.031 111.443,44.031 111.443,40.668 100.581,40.668  "
       id="polygon5" /><path
       fill="#FFFFFF"
       d="M129.947,30.208c-1.218-0.927-3.754-1.378-7.752-1.378c-4.479,0-7.248,0.457-8.463,1.395   c-1.264,0.974-1.878,3.169-1.878,6.711c0,3.012,0.628,4.934,1.919,5.877c1.236,0.901,3.778,1.34,7.773,1.34   c4.424,0,7.168-0.445,8.389-1.36c1.271-0.952,1.89-3.075,1.89-6.49C131.825,33.167,131.211,31.173,129.947,30.208z M126.062,40.213   c-0.136,0.127-0.833,0.538-4.083,0.538c-3.342,0-4.154-0.347-4.348-0.495c-0.135-0.104-0.576-0.641-0.576-3.167   c0-3.636,0.43-4.254,0.515-4.34c0.087-0.087,0.699-0.518,4.315-0.518c3.413,0,4.092,0.376,4.22,0.492   c0.087,0.078,0.517,0.626,0.517,3.722C126.622,39.459,126.193,40.092,126.062,40.213z"
       id="path7" /><path
       fill="#FFFFFF"
       d="M148.984,37.559l0.034,1.866l-0.63-0.889c-0.645-0.899-1.211-1.665-1.699-2.296l-5.659-7.288h-7.634v15.078   h5.139l-0.001-8.575l-0.032-1.854l0.356,0.524c0.638,0.952,1.119,1.638,1.433,2.037l6.202,7.867h7.631V28.953h-5.141   L148.984,37.559z"
       id="path9" /><polygon
       fill="#FFFFFF"
       points="161.422,37.861 171.32,37.861 171.32,34.775 161.422,34.775 161.422,32.315 171.861,32.315    171.861,28.953 156.283,28.953 156.283,44.031 171.953,44.031 171.953,40.668 161.422,40.668  "
       id="polygon11" /><path
       fill="#FFFFFF"
       d="M188.188,35.708c-0.289,0.487-0.63,1.149-1.013,1.962l-0.486,1.01l-0.493-1.028   c-0.427-0.849-0.772-1.501-1.036-1.961l-3.938-6.737h-7.419v15.078h5.139v-8.167c0-0.444-0.019-0.951-0.053-1.512   c0.336,0.673,0.623,1.21,0.855,1.6l4.852,8.079h4.296l4.807-8.151c0.204-0.357,0.478-0.879,0.826-1.571   c-0.03,0.562-0.046,1.084-0.046,1.556v8.167h5.141V28.953h-7.562L188.188,35.708z"
       id="path13" /><path
       fill="#FFFFFF"
       d="M207.547,28.953l-7.592,15.078h5.513l1.312-2.677h8.404l1.346,2.677h5.437l-7.709-15.078H207.547z    M208.282,38.268l2.681-5.424l2.727,5.424H208.282z"
       id="path15" /><path
       fill="#FFFFFF"
       d="M237.917,35.708c-1.011-0.521-3.085-0.833-6.34-0.952c-3.39-0.121-4.291-0.286-4.524-0.373   c-0.298-0.111-0.342-0.707-0.342-1.053c0-0.641,0.261-0.831,0.517-0.934c0.351-0.14,1.244-0.306,3.508-0.306   c1.993,0,2.624,0.155,2.825,0.248c0.3,0.139,0.417,0.636,0.459,0.962c0,0.078,0.012,0.203,0.037,0.37l0.073,0.482h4.969v-1.098   c0-2.094-1.082-3.02-1.99-3.428c-1.188-0.536-3.364-0.797-6.65-0.797c-3.469,0-5.741,0.284-6.95,0.869   c-1.326,0.643-1.999,1.909-1.999,3.764c0,1.814,0.571,3.032,1.698,3.618c1.012,0.527,3.185,0.85,6.641,0.982l2.212,0.093   c1.562,0.059,2.037,0.247,2.172,0.326c0.234,0.138,0.283,0.54,0.283,0.854c0,0.465-0.074,1.059-0.432,1.241   c-0.232,0.118-0.953,0.315-3.176,0.315c-2.901,0-3.753-0.177-4.002-0.282c-0.354-0.149-0.427-0.771-0.428-1.293l-0.042-0.835   h-5.021l0.033,1.078c0,1.848,0.656,3.105,1.95,3.737c1.178,0.574,3.422,0.854,6.86,0.854c3.814,0,6.239-0.285,7.413-0.872   c1.284-0.644,1.936-2.021,1.936-4.098C239.606,37.457,239.038,36.287,237.917,35.708z"
       id="path17" /><polygon
       fill="#FFFFFF"
       points="239.57,32.458 245.664,32.458 245.664,44.031 250.804,44.031 250.804,32.458 257.113,32.458    257.113,28.953 239.57,28.953  "
       id="polygon19" /><polygon
       fill="#FFFFFF"
       points="262.727,37.861 272.623,37.861 272.623,34.775 262.727,34.775 262.727,32.315 273.165,32.315    273.165,28.953 257.588,28.953 257.588,44.031 273.258,44.031 273.258,40.668 262.727,40.668  "
       id="polygon21" /><path
       fill="#FFFFFF"
       d="M291.509,37.602c0.458-0.192,0.812-0.424,1.07-0.695c0.599-0.633,0.89-1.706,0.89-3.279   c0-1.759-0.587-3.005-1.743-3.703c-1.081-0.653-2.927-0.972-5.644-0.972h-10.975v15.078h5.139v-4.699h5.2   c2.65,0,2.65,1.154,2.65,1.589v3.11h5.139v-3.643C293.235,39.389,292.886,38.242,291.509,37.602z M280.246,32.315h5.464   c1.603,0,2.076,0.225,2.205,0.319c0.105,0.08,0.353,0.383,0.353,1.473c0,0.766-0.15,1.279-0.438,1.485   c-0.195,0.142-0.768,0.378-2.397,0.378h-5.187V32.315z"
       id="path23" /></g><g
     id="g25"><path
       fill="#FFFFFF"
       d="M96.305,59.405h1.251v3.812c0.282-0.366,0.62-0.646,1.013-0.84s0.818-0.29,1.277-0.29   c0.957,0,1.734,0.328,2.33,0.983c0.596,0.656,0.894,1.622,0.894,2.9c0,1.211-0.295,2.217-0.883,3.018   c-0.589,0.801-1.405,1.201-2.448,1.201c-0.584,0-1.077-0.141-1.479-0.422c-0.239-0.167-0.495-0.434-0.769-0.801v0.979h-1.187   V59.405z M101.227,68.222c0.347-0.553,0.52-1.282,0.52-2.188c0-0.806-0.173-1.474-0.52-2.003c-0.348-0.529-0.857-0.794-1.532-0.794   c-0.589,0-1.104,0.218-1.546,0.651s-0.664,1.148-0.664,2.146c0,0.72,0.091,1.304,0.272,1.752c0.34,0.844,0.974,1.266,1.901,1.266   C100.356,69.052,100.879,68.776,101.227,68.222z"
       id="path27" /><path
       fill="#FFFFFF"
       d="M109.037,62.287h1.423c-0.181,0.492-0.584,1.612-1.208,3.363c-0.468,1.316-0.858,2.39-1.173,3.219   c-0.743,1.953-1.267,3.145-1.572,3.573c-0.305,0.429-0.828,0.644-1.571,0.644c-0.181,0-0.32-0.008-0.418-0.021   c-0.098-0.015-0.218-0.041-0.361-0.079v-1.173c0.224,0.062,0.386,0.101,0.485,0.114c0.101,0.015,0.188,0.021,0.265,0.021   c0.238,0,0.413-0.039,0.524-0.117c0.112-0.079,0.206-0.175,0.282-0.289c0.023-0.038,0.109-0.233,0.257-0.585   c0.147-0.353,0.255-0.614,0.321-0.785l-2.832-7.885h1.459l2.053,6.239L109.037,62.287z"
       id="path29" /></g><g
     id="g31"><path
       fill="#FFFFFF"
       d="M169.056,65.311c0.296-0.038,0.493-0.162,0.594-0.371c0.057-0.115,0.085-0.28,0.085-0.496   c0-0.439-0.155-0.759-0.467-0.958c-0.312-0.198-0.758-0.298-1.338-0.298c-0.671,0-1.147,0.183-1.428,0.546   c-0.157,0.202-0.26,0.501-0.307,0.898h-1.201c0.023-0.946,0.329-1.604,0.917-1.976c0.589-0.37,1.271-0.556,2.047-0.556   c0.899,0,1.631,0.172,2.192,0.515c0.558,0.344,0.836,0.878,0.836,1.603v4.412c0,0.134,0.027,0.241,0.082,0.321   c0.055,0.081,0.171,0.122,0.347,0.122c0.058,0,0.122-0.004,0.193-0.011c0.071-0.008,0.147-0.019,0.229-0.032v0.951   c-0.2,0.057-0.353,0.093-0.457,0.106c-0.105,0.015-0.248,0.021-0.43,0.021c-0.443,0-0.765-0.157-0.965-0.472   c-0.105-0.167-0.179-0.402-0.222-0.708c-0.263,0.344-0.64,0.642-1.13,0.895c-0.491,0.252-1.032,0.379-1.623,0.379   c-0.711,0-1.291-0.216-1.742-0.646c-0.45-0.431-0.676-0.971-0.676-1.618c0-0.709,0.222-1.259,0.665-1.649s1.025-0.631,1.745-0.722   L169.056,65.311z M166.346,68.789c0.271,0.214,0.593,0.32,0.965,0.32c0.453,0,0.892-0.104,1.315-0.313   c0.716-0.348,1.073-0.917,1.073-1.707v-1.035c-0.157,0.101-0.359,0.185-0.606,0.251c-0.248,0.067-0.49,0.115-0.729,0.144   l-0.777,0.1c-0.467,0.062-0.817,0.16-1.052,0.293c-0.398,0.224-0.598,0.58-0.598,1.07   C165.938,68.282,166.073,68.574,166.346,68.789z"
       id="path33" /><path
       fill="#FFFFFF"
       d="M173.096,62.287h1.223v1.087c0.362-0.447,0.746-0.77,1.151-0.965s0.855-0.293,1.352-0.293   c1.087,0,1.82,0.379,2.202,1.137c0.21,0.415,0.314,1.008,0.314,1.78v4.913h-1.309v-4.827c0-0.467-0.069-0.844-0.207-1.13   c-0.229-0.477-0.644-0.715-1.244-0.715c-0.306,0-0.556,0.031-0.751,0.093c-0.353,0.105-0.663,0.314-0.93,0.63   c-0.215,0.252-0.354,0.514-0.418,0.782c-0.064,0.27-0.097,0.654-0.097,1.155v4.012h-1.287V62.287z"
       id="path35" /><path
       fill="#FFFFFF"
       d="M185.448,62.523c0.229,0.144,0.487,0.394,0.776,0.751v-3.869h1.237v10.541h-1.158V68.88   c-0.299,0.472-0.653,0.812-1.062,1.022s-0.876,0.314-1.403,0.314c-0.85,0-1.586-0.358-2.208-1.076   c-0.622-0.717-0.934-1.672-0.934-2.864c0-1.115,0.284-2.082,0.852-2.899s1.378-1.227,2.433-1.227   C184.565,62.151,185.055,62.275,185.448,62.523z M182.575,68.265c0.347,0.554,0.901,0.83,1.665,0.83c0.593,0,1.08-0.257,1.462-0.77   c0.382-0.512,0.573-1.247,0.573-2.206c0-0.968-0.197-1.684-0.591-2.148s-0.88-0.697-1.459-0.697c-0.645,0-1.168,0.248-1.568,0.744   c-0.4,0.495-0.602,1.225-0.602,2.188C182.056,67.026,182.229,67.712,182.575,68.265z"
       id="path37" /></g><path
     fill="#FFFFFF"
     d="M125.364,63.631c0,0.93,0.369,1.852,0.982,2.467c0.49,0.492,1.186,0.847,2.184,1.129  c0.5,0.152,1.055,0.277,1.748,0.398l0.483,0.074c0.63,0.096,1.28,0.189,1.729,0.424c0.242,0.135,0.48,0.301,0.48,0.719  c0,0.978-1.439,1.242-2.289,1.242c-1.268,0-2.57-0.619-3.766-1.789h-0.043l-2.42,2.195l-0.01,0.023l0.01,0.023  c0.805,0.756,2.688,2.525,6.33,2.525c2.98,0,6.193-1.436,6.193-4.594c0-3.014-2.812-3.775-5.689-4.295  c-1.23-0.223-2.045-0.367-2.045-1.092c0-0.156,0.09-0.939,1.812-0.939c1.023,0,2.176,0.457,3.25,1.289h0.038l2.372-2.197  l0.008-0.025l-0.01-0.023l-0.053-0.031c-0.893-0.625-2.758-1.916-5.779-1.916C127.262,59.239,125.364,61.45,125.364,63.631"
     id="path39" /><path
     fill="#FFFFFF"
     d="M137.634,66.299c0,4.107,2.598,6.764,6.613,6.764c1.9,0,3.654-0.658,4.936-1.852  c0.664-0.617,1.105-1.252,1.572-1.953l0.004-0.025l-0.014-0.018l-2.893-1.473l-0.041,0.014c-0.467,0.907-1.168,2.275-3.266,2.275  c-0.834,0-1.547-0.273-2.061-0.793c-0.561-0.568-0.875-1.42-0.875-2.352v-0.033h9.27l0.02-0.008l0.012-0.023  c-0.047-1.4-0.137-4.012-1.855-5.855c-1.143-1.229-2.768-1.881-4.711-1.881C139.394,59.086,137.634,62.813,137.634,66.299   M141.644,64.393c0.127-0.547,0.256-1.109,0.756-1.662c0.295-0.314,0.934-0.836,1.922-0.836c0.701,0,1.408,0.27,1.848,0.713  c0.531,0.556,0.639,1.263,0.709,1.789h-5.234V64.393z"
     id="path41" /><path
     fill="#FFFFFF"
     d="M123.735,70.463c0,1.381-1.115,2.496-2.496,2.496s-2.496-1.115-2.496-2.496c0-1.379,1.115-2.498,2.496-2.498  S123.735,69.084,123.735,70.463"
     id="path43" /><path
     id="path45"
     fill="#FFFFFF"
     d="M247.323,65.239c-1.091,0.163-2.277,0.422-3.744,1.025c-2.524,0.984-6.277,3.501-7.304,3.654  c-1.18,0.29-2.251,0.367-2.22-1.41c0.014-0.834,1.283-3.186,3.571-3.656c0.659-0.072,0.634,0.688,0.634,0.688  s-0.104,0.997,0.686,1.07c1.168,0,1.733-0.672,1.733-1.541c-0.035-0.868-1.683-3.776-5.057-2.083c0,0-3.06,1.546-4.181,3.978  c-0.395,0.854-0.442,1.397-0.43,1.811c-0.452,0.272-0.801,0.473-0.896,0.524c-0.312,0.174-0.867,0.174-1.075-0.312  c-0.207-1.422,2.774-6.139,2.74-6.624s-1.907-0.104-2.115-0.036c-0.209,0.071-0.383,0.071-0.555,0.417  c-0.417,1.284-1.354,3.225-2.672,5.445c-0.027,0.047-0.054,0.092-0.081,0.14c0-0.003-0.001-0.004-0.001-0.006  c-0.632,1.2-1.367,1.374-1.576,1.399c-0.132-0.007-0.243-0.036-0.318-0.079c-0.185-0.101-0.381-0.312-0.277-0.9  c0.097-0.548,1.942-4.007,2.047-5.169c0.112-1.274-0.914-1.317-2.047-1.04c-1.474,0.361-3.745,3.053-4.613,3.919  c-0.867,0.868-0.693,0.105-0.659-0.138c0.035-0.243,0.867-2.602,1.04-3.261c0.175-0.659-0.72-0.859-1.595-0.381  c-0.317,0.173-4.354,2.642-6.09,3.68c-0.063-1.443,0.074-2.98,0.471-4.341c0.799-2.012,2.187-3.573,6.417-3.468  c0.485-0.069,0.485-0.295,0.59-0.555c0.139-0.348,0.347-1.388-0.104-1.839c0,0-7.283-2.047-9.573,5.167  c-0.38,1.386-0.435,3.805-0.127,6.544c-0.538,0.342-1.771,1.124-2.122,1.33c-2.063,1.214-1.584-0.139-0.948-1.387  c0.637-1.248,2.008-3.92,2.008-3.92s-0.758-1.146-1.829-1.354c-0.502,0.729-2.408,4.405-5.655,6.036  c-1.203,0.485-1.672-0.693-1.405-1.422c0.268-0.729,0.903-2.739,4.384-2.983c0.013-0.005,0.025-0.011,0.039-0.016l0.057-0.006  l1.203-0.052c0,0,1.296-1.516-0.021-2.026c-0.003-0.01-0.006-0.015-0.006-0.015s-6.58-2.325-8.767,5.166  c-0.702,3.088,0.938,5.064,3.179,5.099c1.071-0.068,3.112-0.729,4.986-3.919c-0.403,1.597-0.938,3.677,1.404,4.196  c1.312,0.188,2.599-0.831,3.938-1.829c0.621,3.202,1.703,6.5,3.291,8.905c0.348,0.416,1.041,0.277,1.422,0.069  c0.383-0.209,1.214-0.555,0.868-1.353c-0.226-0.519-2.351-4.414-3.274-8.934c0.826-0.651,2.31-1.703,2.754-1.991  c0.589-0.381,0.9-0.589,0.936-0.138c0,0.936-1.352,2.947-1.352,4.403c0.138,1.215,0.895,1.236,1.56,0.868  c0.961-0.532,5.1-5.549,5.724-6.104c0.07,0.59-1.041,3.503-1.214,4.509s0.104,1.388,0.763,1.665c1.173,0.57,3.377-0.7,4.024-1.104  c0.085,0.266,0.173,0.413,0.173,0.413c0.347,0.451,1.006,0.886,2.288,0.832c0.872-0.036,2.127-0.792,3.201-1.548  c0.632,0.973,2.061,1.827,4.616,1.418c0.231-0.06,0.451-0.119,0.659-0.181l0.526-0.167c1.957-0.664,2.87-1.518,5.067-2.814  c3.326-1.669,6.548-2.846,8.643-2.448C250.688,65.981,249.747,64.876,247.323,65.239" /><g
     id="g47"><path
       fill="#FFFFFF"
       d="M53.087,14.212V30.52h16.304C69.391,21.528,62.077,14.212,53.087,14.212z"
       id="path49" /><path
       fill="#FFFFFF"
       d="M53.087,46.824V30.52H36.785C36.785,39.51,44.098,46.824,53.087,46.824z"
       id="path51" /><path
       fill="#FFFFFF"
       d="M74.9,27.956C73.629,17.036,64.354,8.559,53.093,8.559c-6.354,0-12.075,2.701-16.085,7.015   c-1.691-1.104-3.707-1.751-5.876-1.751c-5.536,0-10.091,4.176-10.701,9.547c-5.863,1.91-10.106,7.414-10.106,13.914   c0,8.086,6.557,14.641,14.641,14.641c2.575,0,4.992-0.67,7.095-1.838c1.921,1.159,4.164,1.838,6.571,1.838   c2.013,0,3.909-0.479,5.603-1.31c2.71,1.196,5.706,1.866,8.858,1.866c4.695,0,9.042-1.479,12.611-3.987   c2.138,2.023,5.018,3.272,8.195,3.272c6.588,0,11.93-5.34,11.93-11.932C85.829,33.586,81.019,28.465,74.9,27.956z M53.087,47.951   c-9.61,0-17.429-7.819-17.429-17.431c0-9.613,7.818-17.435,17.429-17.435c9.611,0,17.431,7.821,17.431,17.435   C70.518,40.131,62.698,47.951,53.087,47.951z"
       id="path53" /></g></svg>