<?xml version="1.0" encoding="utf-8"?>
<!-- Generator: Adobe Illustrator 19.1.0, SVG Export Plug-In . SVG Version: 6.00 Build 0)  -->
<svg version="1.1" id="Lager_1" xmlns="http://www.w3.org/2000/svg" xmlns:xlink="http://www.w3.org/1999/xlink" x="0px" y="0px"
	 viewBox="-262 250.6 315 94.7" style="enable-background:new -262 250.6 315 94.7;" xml:space="preserve">
<style type="text/css">
	.st0{fill:#FFFFFF;}
	.st1{fill:none;}
</style>
<g>
	<polygon class="st0" points="-150.7,282.6 -150.7,279.5 -168.1,279.5 -168.1,282.9 -157.9,282.9 -168.6,291.5 -168.6,294.6 
		-150.6,294.6 -150.6,291.3 -161.4,291.3 	"/>
	<path class="st0" d="M-132.1,280.8c-1.2-0.9-3.8-1.4-7.8-1.4c-4.5,0-7.2,0.5-8.5,1.4c-1.3,1-1.9,3.2-1.9,6.7c0,3,0.6,4.9,1.9,5.9
		c1.2,0.9,3.8,1.3,7.8,1.3c4.4,0,7.2-0.4,8.4-1.4c1.3-1,1.9-3.1,1.9-6.5C-130.2,283.8-130.8,281.8-132.1,280.8z M-135.9,290.8
		c-0.1,0.1-0.8,0.5-4.1,0.5c-3.3,0-4.2-0.3-4.3-0.5c-0.1-0.1-0.6-0.6-0.6-3.2c0-3.6,0.4-4.3,0.5-4.3c0.1-0.1,0.7-0.5,4.3-0.5
		c3.4,0,4.1,0.4,4.2,0.5c0.1,0.1,0.5,0.6,0.5,3.7C-135.4,290-135.8,290.7-135.9,290.8z"/>
	<path class="st0" d="M-113,288.1l0,1.9l-0.6-0.9c-0.6-0.9-1.2-1.7-1.7-2.3l-5.7-7.3h-7.6v15.1h5.1l0-8.6l0-1.9l0.4,0.5
		c0.6,1,1.1,1.6,1.4,2l6.2,7.9h7.6v-15.1h-5.1L-113,288.1z"/>
	<polygon class="st0" points="-100.6,288.4 -90.7,288.4 -90.7,285.4 -100.6,285.4 -100.6,282.9 -90.1,282.9 -90.1,279.5 
		-105.7,279.5 -105.7,294.6 -90,294.6 -90,291.3 -100.6,291.3 	"/>
	<path class="st0" d="M-73.8,286.3c-0.3,0.5-0.6,1.1-1,2l-0.5,1l-0.5-1c-0.4-0.8-0.8-1.5-1-2l-3.9-6.7h-7.4v15.1h5.1v-8.2
		c0-0.4,0-1-0.1-1.5c0.3,0.7,0.6,1.2,0.9,1.6l4.9,8.1h4.3l4.8-8.2c0.2-0.4,0.5-0.9,0.8-1.6c0,0.6,0,1.1,0,1.6v8.2h5.1v-15.1h-7.6
		L-73.8,286.3z"/>
	<path class="st0" d="M-54.5,279.5l-7.6,15.1h5.5l1.3-2.7h8.4l1.3,2.7h5.4l-7.7-15.1H-54.5z M-53.7,288.9l2.7-5.4l2.7,5.4H-53.7z"/>
	<path class="st0" d="M-24.1,286.3c-1-0.5-3.1-0.8-6.3-1c-3.4-0.1-4.3-0.3-4.5-0.4c-0.3-0.1-0.3-0.7-0.3-1.1c0-0.6,0.3-0.8,0.5-0.9
		c0.4-0.1,1.2-0.3,3.5-0.3c2,0,2.6,0.2,2.8,0.2c0.3,0.1,0.4,0.6,0.5,1c0,0.1,0,0.2,0,0.4l0.1,0.5h5v-1.1c0-2.1-1.1-3-2-3.4
		c-1.2-0.5-3.4-0.8-6.6-0.8c-3.5,0-5.7,0.3-6.9,0.9c-1.3,0.6-2,1.9-2,3.8c0,1.8,0.6,3,1.7,3.6c1,0.5,3.2,0.9,6.6,1l2.2,0.1
		c1.6,0.1,2,0.2,2.2,0.3c0.2,0.1,0.3,0.5,0.3,0.9c0,0.5-0.1,1.1-0.4,1.2c-0.2,0.1-1,0.3-3.2,0.3c-2.9,0-3.8-0.2-4-0.3
		c-0.4-0.1-0.4-0.8-0.4-1.3l0-0.8h-5l0,1.1c0,1.8,0.7,3.1,1.9,3.7c1.2,0.6,3.4,0.9,6.9,0.9c3.8,0,6.2-0.3,7.4-0.9
		c1.3-0.6,1.9-2,1.9-4.1C-22.4,288-23,286.9-24.1,286.3z"/>
	<polygon class="st0" points="-22.4,283 -16.3,283 -16.3,294.6 -11.2,294.6 -11.2,283 -4.9,283 -4.9,279.5 -22.4,279.5 	"/>
	<polygon class="st0" points="0.7,288.4 10.6,288.4 10.6,285.4 0.7,285.4 0.7,282.9 11.2,282.9 11.2,279.5 -4.4,279.5 -4.4,294.6 
		11.3,294.6 11.3,291.3 0.7,291.3 	"/>
	<path class="st0" d="M29.5,288.2c0.5-0.2,0.8-0.4,1.1-0.7c0.6-0.6,0.9-1.7,0.9-3.3c0-1.8-0.6-3-1.7-3.7c-1.1-0.7-2.9-1-5.6-1h-11
		v15.1h5.1v-4.7h5.2c2.6,0,2.6,1.2,2.6,1.6v3.1h5.1V291C31.2,290,30.9,288.8,29.5,288.2z M18.2,282.9h5.5c1.6,0,2.1,0.2,2.2,0.3
		c0.1,0.1,0.4,0.4,0.4,1.5c0,0.8-0.1,1.3-0.4,1.5c-0.2,0.1-0.8,0.4-2.4,0.4h-5.2L18.2,282.9L18.2,282.9z"/>
</g>
<g>
	<path class="st0" d="M-165.7,310h1.3v3.8c0.3-0.4,0.6-0.6,1-0.8s0.8-0.3,1.3-0.3c1,0,1.7,0.3,2.3,1c0.6,0.7,0.9,1.6,0.9,2.9
		c0,1.2-0.3,2.2-0.9,3c-0.6,0.8-1.4,1.2-2.4,1.2c-0.6,0-1.1-0.1-1.5-0.4c-0.2-0.2-0.5-0.4-0.8-0.8v1h-1.2L-165.7,310L-165.7,310z
		 M-160.8,318.8c0.3-0.6,0.5-1.3,0.5-2.2c0-0.8-0.2-1.5-0.5-2c-0.3-0.5-0.9-0.8-1.5-0.8c-0.6,0-1.1,0.2-1.5,0.7s-0.7,1.1-0.7,2.1
		c0,0.7,0.1,1.3,0.3,1.8c0.3,0.8,1,1.3,1.9,1.3C-161.6,319.6-161.1,319.4-160.8,318.8z"/>
	<path class="st0" d="M-153,312.9h1.4c-0.2,0.5-0.6,1.6-1.2,3.4c-0.5,1.3-0.9,2.4-1.2,3.2c-0.7,2-1.3,3.1-1.6,3.6
		c-0.3,0.4-0.8,0.6-1.6,0.6c-0.2,0-0.3,0-0.4,0c-0.1,0-0.2,0-0.4-0.1v-1.2c0.2,0.1,0.4,0.1,0.5,0.1c0.1,0,0.2,0,0.3,0
		c0.2,0,0.4,0,0.5-0.1c0.1-0.1,0.2-0.2,0.3-0.3c0,0,0.1-0.2,0.3-0.6c0.1-0.4,0.3-0.6,0.3-0.8l-2.8-7.9h1.5l2.1,6.2L-153,312.9z"/>
</g>
<g>
	<path class="st0" d="M-110.9,315.9c0.3,0,0.5-0.2,0.6-0.4c0.1-0.1,0.1-0.3,0.1-0.5c0-0.4-0.2-0.8-0.5-1c-0.3-0.2-0.8-0.3-1.3-0.3
		c-0.7,0-1.1,0.2-1.4,0.5c-0.2,0.2-0.3,0.5-0.3,0.9h-1.2c0-0.9,0.3-1.6,0.9-2c0.6-0.4,1.3-0.6,2-0.6c0.9,0,1.6,0.2,2.2,0.5
		c0.6,0.3,0.8,0.9,0.8,1.6v4.4c0,0.1,0,0.2,0.1,0.3c0.1,0.1,0.2,0.1,0.3,0.1c0.1,0,0.1,0,0.2,0c0.1,0,0.1,0,0.2,0v1
		c-0.2,0.1-0.4,0.1-0.5,0.1c-0.1,0-0.2,0-0.4,0c-0.4,0-0.8-0.2-1-0.5c-0.1-0.2-0.2-0.4-0.2-0.7c-0.3,0.3-0.6,0.6-1.1,0.9
		c-0.5,0.3-1,0.4-1.6,0.4c-0.7,0-1.3-0.2-1.7-0.6c-0.4-0.4-0.7-1-0.7-1.6c0-0.7,0.2-1.3,0.7-1.6c0.4-0.4,1-0.6,1.7-0.7L-110.9,315.9
		z M-113.7,319.4c0.3,0.2,0.6,0.3,1,0.3c0.5,0,0.9-0.1,1.3-0.3c0.7-0.3,1.1-0.9,1.1-1.7v-1c-0.2,0.1-0.4,0.2-0.6,0.3
		c-0.2,0.1-0.5,0.1-0.7,0.1l-0.8,0.1c-0.5,0.1-0.8,0.2-1.1,0.3c-0.4,0.2-0.6,0.6-0.6,1.1C-114.1,318.9-113.9,319.2-113.7,319.4z"/>
	<path class="st0" d="M-106.9,312.9h1.2v1.1c0.4-0.4,0.7-0.8,1.2-1s0.9-0.3,1.4-0.3c1.1,0,1.8,0.4,2.2,1.1c0.2,0.4,0.3,1,0.3,1.8
		v4.9h-1.3v-4.8c0-0.5-0.1-0.8-0.2-1.1c-0.2-0.5-0.6-0.7-1.2-0.7c-0.3,0-0.6,0-0.8,0.1c-0.4,0.1-0.7,0.3-0.9,0.6
		c-0.2,0.3-0.4,0.5-0.4,0.8c-0.1,0.3-0.1,0.7-0.1,1.2v4h-1.3L-106.9,312.9L-106.9,312.9z"/>
	<path class="st0" d="M-94.6,313.1c0.2,0.1,0.5,0.4,0.8,0.8V310h1.2v10.5h-1.2v-1.1c-0.3,0.5-0.7,0.8-1.1,1
		c-0.4,0.2-0.9,0.3-1.4,0.3c-0.9,0-1.6-0.4-2.2-1.1c-0.6-0.7-0.9-1.7-0.9-2.9c0-1.1,0.3-2.1,0.9-2.9s1.4-1.2,2.4-1.2
		C-95.4,312.7-94.9,312.9-94.6,313.1z M-97.4,318.9c0.3,0.6,0.9,0.8,1.7,0.8c0.6,0,1.1-0.3,1.5-0.8c0.4-0.5,0.6-1.2,0.6-2.2
		c0-1-0.2-1.7-0.6-2.1s-0.9-0.7-1.5-0.7c-0.6,0-1.2,0.2-1.6,0.7c-0.4,0.5-0.6,1.2-0.6,2.2C-97.9,317.6-97.8,318.3-97.4,318.9z"/>
</g>
<g>
	<path class="st0" d="M-208.9,264.8v16.3h16.3C-192.6,272.1-199.9,264.8-208.9,264.8z"/>
	<path class="st0" d="M-208.9,297.4v-16.3h-16.3C-225.2,290.1-217.9,297.4-208.9,297.4z"/>
	<path class="st0" d="M-187.1,278.5c-1.3-10.9-10.5-19.4-21.8-19.4c-6.4,0-12.1,2.7-16.1,7c-1.7-1.1-3.7-1.8-5.9-1.8
		c-5.5,0-10.1,4.2-10.7,9.5c-5.9,1.9-10.1,7.4-10.1,13.9c0,8.1,6.6,14.6,14.6,14.6c2.6,0,5-0.7,7.1-1.8c1.9,1.2,4.2,1.8,6.6,1.8
		c2,0,3.9-0.5,5.6-1.3c2.7,1.2,5.7,1.9,8.9,1.9c4.7,0,9-1.5,12.6-4c2.1,2,5,3.3,8.2,3.3c6.6,0,11.9-5.3,11.9-11.9
		C-176.2,284.2-181,279.1-187.1,278.5z M-208.9,298.5c-9.6,0-17.4-7.8-17.4-17.4c0-9.6,7.8-17.4,17.4-17.4c9.6,0,17.4,7.8,17.4,17.4
		C-191.5,290.7-199.3,298.5-208.9,298.5z"/>
</g>
<g>
	<path id="path13" class="st0" d="M-33.7,315.8c-1.1,0.2-2.3,0.4-3.7,1c-2.5,1-6.3,3.5-7.3,3.7c-1.2,0.3-2.3,0.4-2.2-1.4
		c0-0.8,1.3-3.2,3.6-3.7c0.7-0.1,0.6,0.7,0.6,0.7s-0.1,1,0.7,1.1c1.2,0,1.7-0.7,1.7-1.5c0-0.9-1.7-3.8-5.1-2.1c0,0-3.1,1.5-4.2,4
		c-0.4,0.9-0.4,1.4-0.4,1.8c-0.5,0.3-0.8,0.5-0.9,0.5c-0.3,0.2-0.9,0.2-1.1-0.3c-0.2-1.4,2.8-6.1,2.7-6.6c0-0.5-1.9-0.1-2.1,0
		c-0.2,0.1-0.4,0.1-0.6,0.4c-0.4,1.3-1.4,3.2-2.7,5.4c0,0-0.1,0.1-0.1,0.1c0,0,0,0,0,0c-0.6,1.2-1.4,1.4-1.6,1.4
		c-0.1,0-0.2,0-0.3-0.1c-0.2-0.1-0.4-0.3-0.3-0.9c0.1-0.5,1.9-4,2-5.2c0.1-1.3-0.9-1.3-2-1c-1.5,0.4-3.7,3.1-4.6,3.9
		c-0.9,0.9-0.7,0.1-0.7-0.1c0-0.2,0.9-2.6,1-3.3c0.2-0.7-0.7-0.9-1.6-0.4c-0.3,0.2-4.4,2.6-6.1,3.7c-0.1-1.4,0.1-3,0.5-4.3
		c0.8-2,2.2-3.6,6.4-3.5c0.5-0.1,0.5-0.3,0.6-0.6c0.1-0.3,0.3-1.4-0.1-1.8c0,0-7.3-2-9.6,5.2c-0.4,1.4-0.4,3.8-0.1,6.5
		c-0.5,0.3-1.8,1.1-2.1,1.3c-2.1,1.2-1.6-0.1-0.9-1.4c0.6-1.2,2-3.9,2-3.9s-0.8-1.1-1.8-1.4c-0.5,0.7-2.4,4.4-5.7,6
		c-1.2,0.5-1.7-0.7-1.4-1.4c0.3-0.7,0.9-2.7,4.4-3c0,0,0,0,0,0l0.1,0l1.2-0.1c0,0,1.3-1.5,0-2c0,0,0,0,0,0s-6.6-2.3-8.8,5.2
		c-0.7,3.1,0.9,5.1,3.2,5.1c1.1-0.1,3.1-0.7,5-3.9c-0.4,1.6-0.9,3.7,1.4,4.2c1.3,0.2,2.6-0.8,3.9-1.8c0.6,3.2,1.7,6.5,3.3,8.9
		c0.3,0.4,1,0.3,1.4,0.1c0.4-0.2,1.2-0.6,0.9-1.4c-0.2-0.5-2.4-4.4-3.3-8.9c0.8-0.7,2.3-1.7,2.8-2c0.6-0.4,0.9-0.6,0.9-0.1
		c0,0.9-1.4,2.9-1.4,4.4c0.1,1.2,0.9,1.2,1.6,0.9c1-0.5,5.1-5.5,5.7-6.1c0.1,0.6-1,3.5-1.2,4.5s0.1,1.4,0.8,1.7
		c1.2,0.6,3.4-0.7,4-1.1c0.1,0.3,0.2,0.4,0.2,0.4c0.3,0.5,1,0.9,2.3,0.8c0.9,0,2.1-0.8,3.2-1.5c0.6,1,2.1,1.8,4.6,1.4
		c0.2-0.1,0.5-0.1,0.7-0.2l0.5-0.2c2-0.7,2.9-1.5,5.1-2.8c3.3-1.7,6.5-2.8,8.6-2.4C-30.3,316.6-31.3,315.5-33.7,315.8"/>
	<path id="path11" class="st0" d="M-49,311.6c0.3-0.4,1.8-2.3,1.4-2.7c-0.4-0.4-2.1-0.3-2.4,0.3c-0.4,0.6-1.3,2.5-1.3,2.5
		S-49.5,311.3-49,311.6"/>
</g>
<g>
	<rect x="-140.6" y="306.3" class="st1" width="24" height="24"/>
</g>
<path class="st0" d="M-142.9,307.4v18.5h18.5v-18.5H-142.9z M-137.9,321.6h-2.5V316h2.5V321.6z M-137.9,314.7h-2.5v-3.1h2.5V314.7z
	 M-134.2,321.6h-2.5V316h2.5V321.6z M-134.2,314.7h-2.5v-3.1h2.5V314.7z M-130.1,321.7c-1.9,0-3.3-1.3-3.3-3.1c0-0.1,0-0.2,0-0.2
	h2.4v0.1c0,0.6,0.4,1,0.9,1c0.5,0,0.9-0.4,0.9-0.9c0-0.5-0.4-0.8-1.3-1.1c-1.3-0.5-2.8-1.1-2.8-2.9c0-1.8,1.4-3,3.2-3
	c1.8,0,3.2,1.2,3.2,3c0,0.1,0,0.2,0,0.2h-2.3v-0.1c0-0.6-0.4-1-0.9-1c-0.5,0-0.8,0.3-0.8,0.8c0,0.5,0.4,0.8,1.4,1.1
	c1.3,0.5,2.8,1.1,2.8,3C-126.8,320.4-128.2,321.7-130.1,321.7z"/>
</svg>
